SplineFontDB: 3.2
FontName: HarnituraSans
FullName: Harnitura Sans
FamilyName: Harnitura Sans
Weight: Regular
Copyright: 
UComments: "2024-5-18: Created with FontForge (http://fontforge.org)"
Version: 1
ItalicAngle: 0
UnderlinePosition: -100
UnderlineWidth: 50
Ascent: 800
Descent: 200
InvalidEm: 0
LayerCount: 2
Layer: 0 0 "+BBcEMAQ0BD0EVgQ5 +BD8EOwQwBD0A" 1
Layer: 1 0 "+BB8ENQRABDUENAQ9BFYEOQAA +BD8EOwQwBD0A" 0
XUID: [1021 117 -1471388369 2923543]
StyleMap: 0x0000
FSType: 0
OS2Version: 0
OS2_WeightWidthSlopeOnly: 0
OS2_UseTypoMetrics: 1
CreationTime: 1716053234
ModificationTime: 1717680912
PfmFamily: 33
TTFWeight: 400
TTFWidth: 5
LineGap: 90
VLineGap: 0
OS2TypoAscent: 0
OS2TypoAOffset: 1
OS2TypoDescent: 0
OS2TypoDOffset: 1
OS2TypoLinegap: 90
OS2WinAscent: 0
OS2WinAOffset: 1
OS2WinDescent: 0
OS2WinDOffset: 1
HheadAscent: 0
HheadAOffset: 1
HheadDescent: 0
HheadDOffset: 1
OS2Vendor: 'PfEd'
Lookup: 258 0 0 "'kern' +BBMEPgRABDgENwQ+BD0EQgQwBDsETAQ9BDgEOQAA +BDoENQRABD0EVgQ9BJEA, +BEQEVgQ7BEwEQgRABEMEMgQwBD0EPQRP 0" { } ['kern' ('DFLT' <'dflt' > ) ]
MarkAttachClasses: 1
DEI: 91125
LangName: 1033
Encoding: UnicodeBmp
Compacted: 1
UnicodeInterp: none
NameList: AGL For New Fonts
DisplaySize: -48
AntiAlias: 1
FitToEm: 0
WidthSeparation: 115
WinInfo: 0 38 14
BeginPrivate: 0
EndPrivate
BeginChars: 65536 163

StartChar: exclam
Encoding: 33 33 1
Width: 199
Flags: W
HStem: 0 100<57 141> 780 20G<57 141>
VStem: 57 84<0 100 190 800>
LayerCount: 2
Fore
SplineSet
57 100 m 1
 141 100 l 1
 141 0 l 1
 57 0 l 1
 57 100 l 1
57 800 m 1
 141 800 l 1
 141 190 l 5
 57 190 l 5
 57 800 l 1
EndSplineSet
EndChar

StartChar: quotedbl
Encoding: 34 34 2
Width: 336
Flags: W
HStem: 555 245<51 135 200 284>
VStem: 51 84<555 800> 200 84<555 800>
LayerCount: 2
Fore
SplineSet
200 800 m 1
 284 800 l 1
 284 555 l 1
 200 555 l 1
 200 800 l 1
51 800 m 1
 135 800 l 1
 135 555 l 1
 51 555 l 1
 51 800 l 1
EndSplineSet
EndChar

StartChar: quotesingle
Encoding: 39 39 3
Width: 187
Flags: W
HStem: 555 245<51 135>
VStem: 51 84<555 800>
LayerCount: 2
Fore
SplineSet
51 800 m 1
 135 800 l 1
 135 555 l 1
 51 555 l 1
 51 800 l 1
EndSplineSet
EndChar

StartChar: asterisk
Encoding: 42 42 4
Width: 376
Flags: W
HStem: 500 300<157 217>
VStem: 157 60<500 598 702 800>
LayerCount: 2
Fore
SplineSet
157 800 m 1
 217 800 l 1
 217 702 l 1
 302 751 l 1
 332 699 l 1
 247 650 l 1
 332 601 l 1
 302 549 l 1
 217 598 l 1
 217 500 l 1
 157 500 l 1
 157 598 l 1
 72 549 l 1
 42 601 l 1
 127 650 l 1
 42 699 l 1
 72 751 l 1
 157 702 l 1
 157 800 l 1
EndSplineSet
EndChar

StartChar: plus
Encoding: 43 43 5
Width: 569
Flags: W
HStem: 365 70<43 250 320 527>
VStem: 250 70<158 365 435 642>
LayerCount: 2
Fore
SplineSet
250 158 m 5
 250 365 l 5
 43 365 l 5
 43 435 l 5
 250 435 l 5
 250 642 l 5
 320 642 l 5
 320 435 l 5
 527 435 l 5
 527 365 l 5
 320 365 l 5
 320 158 l 5
 250 158 l 5
EndSplineSet
EndChar

StartChar: numbersign
Encoding: 35 35 6
Width: 606
Flags: W
HStem: 0 21G<101 174.545 299 372.545> 220 70<38 140 222 338 420 525> 510 70<83 191 273 389 471 566> 780 20G<238.455 312 436.455 510>
LayerCount: 2
Fore
SplineSet
38 220 m 1
 38 290 l 1
 152 290 l 1
 191 510 l 1
 83 510 l 1
 83 580 l 1
 203 580 l 1
 242 800 l 1
 312 800 l 1
 273 580 l 1
 401 580 l 1
 440 800 l 1
 510 800 l 1
 471 580 l 1
 566 580 l 1
 566 510 l 1
 459 510 l 1
 420 290 l 1
 525 290 l 1
 525 220 l 1
 408 220 l 1
 369 0 l 1
 299 0 l 1
 338 220 l 1
 210 220 l 1
 171 0 l 1
 101 0 l 1
 140 220 l 1
 38 220 l 1
261 510 m 1
 222 290 l 1
 350 290 l 1
 389 510 l 1
 261 510 l 1
EndSplineSet
EndChar

StartChar: period
Encoding: 46 46 7
Width: 197
Flags: W
HStem: 0 100<49 149>
VStem: 49 100<0 100>
LayerCount: 2
Fore
SplineSet
49 0 m 1
 49 100 l 1
 149 100 l 1
 149 0 l 1
 49 0 l 1
EndSplineSet
EndChar

StartChar: slash
Encoding: 47 47 8
Width: 469
Flags: W
HStem: -200 21G<30 126.32> 780 20G<339.68 436>
LayerCount: 2
Fore
SplineSet
120 -200 m 5
 30 -200 l 5
 346 800 l 5
 436 800 l 5
 120 -200 l 5
EndSplineSet
EndChar

StartChar: colon
Encoding: 58 58 9
Width: 200
Flags: W
HStem: 0 100<51 151> 475 100<51 151>
VStem: 51 100<0 100 475 575>
LayerCount: 2
Fore
SplineSet
51 575 m 25
 151 575 l 25
 151 475 l 25
 51 475 l 25
 51 575 l 25
51 100 m 25
 151 100 l 25
 151 0 l 25
 51 0 l 25
 51 100 l 25
EndSplineSet
EndChar

StartChar: comma
Encoding: 44 44 10
Width: 197
Flags: W
HStem: -145 245<50 110>
VStem: 50 100<-25.375 100> 50 60<-145 -119.625>
LayerCount: 2
Fore
SplineSet
50 100 m 25xc0
 150 100 l 17
 150 0 l 1xc0
 110 -145 l 9
 50 -145 l 25xa0
 50 100 l 25xc0
EndSplineSet
EndChar

StartChar: hyphen
Encoding: 45 45 11
Width: 342
Flags: W
HStem: 365 70<52 290>
VStem: 52 238<365 435>
LayerCount: 2
Fore
SplineSet
52 365 m 5
 52 435 l 5
 290 435 l 5
 290 365 l 5
 52 365 l 5
EndSplineSet
EndChar

StartChar: semicolon
Encoding: 59 59 12
Width: 201
Flags: W
HStem: 475 100<51 151>
VStem: 51 100<-145 100 475 575>
LayerCount: 2
Fore
SplineSet
51 575 m 25
 151 575 l 25
 151 475 l 25
 51 475 l 25
 51 575 l 25
51 100 m 25
 151 100 l 25
 151 -145 l 25
 51 -145 l 25
 51 100 l 25
EndSplineSet
EndChar

StartChar: less
Encoding: 60 60 13
Width: 590
Flags: W
LayerCount: 2
Fore
SplineSet
43 365 m 25
 43 435 l 25
 538 640 l 25
 538 560 l 25
 138 400 l 25
 538 240 l 25
 538 160 l 25
 43 365 l 25
EndSplineSet
EndChar

StartChar: greater
Encoding: 62 62 14
Width: 588
Flags: W
LayerCount: 2
Fore
SplineSet
545 435 m 25
 545 365 l 25
 50 160 l 25
 50 240 l 25
 450 400 l 25
 50 560 l 25
 50 640 l 25
 545 435 l 25
EndSplineSet
EndChar

StartChar: equal
Encoding: 61 61 15
Width: 587
Flags: W
HStem: 280 70<52 536> 450 70<52 536>
LayerCount: 2
Fore
SplineSet
52 520 m 1
 536 520 l 1
 536 450 l 1
 52 450 l 1
 52 520 l 1
52 350 m 1
 536 350 l 1
 536 280 l 1
 52 280 l 1
 52 350 l 1
EndSplineSet
EndChar

StartChar: A
Encoding: 65 65 16
Width: 710
Flags: W
HStem: 0 21G<35 141.25 568.75 675> 240 80<236 474> 780 20G<288.5 421.5>
LayerCount: 2
Fore
SplineSet
474 320 m 5
 355 700 l 5
 236 320 l 5
 474 320 l 5
500 240 m 5
 210 240 l 5
 135 0 l 5
 35 0 l 5
 295 800 l 5
 415 800 l 5
 675 0 l 5
 575 0 l 5
 500 240 l 5
EndSplineSet
EndChar

StartChar: one
Encoding: 49 49 17
Width: 342
Flags: W
HStem: 0 21G<194 284> 570 80<39 131.988> 780 20G<194 284>
VStem: 194 90<0 570 711.56 800>
LayerCount: 2
Fore
SplineSet
284 0 m 1
 194 0 l 1
 194 570 l 1
 39 570 l 1
 39 650 l 1
 139 650 194 700 194 800 c 1
 284 800 l 1
 284 0 l 1
EndSplineSet
EndChar

StartChar: two
Encoding: 50 50 18
Width: 557
Flags: W
HStem: 0 90<141 513> 710 90<200.807 359.503>
VStem: 41 90<529 634.538> 423 90<513.891 649.222>
LayerCount: 2
Fore
SplineSet
513 90 m 25
 513 0 l 1
 41 0 l 1
 43 186 132.409179688 274.301757812 226 352 c 2
 332 440 l 2
 391.6015625 489.48046875 423 537 423 575 c 0
 423 652.0859375 367 710 277 710 c 0
 187 710 131 647 131 529 c 1
 41 529 l 1
 41 669 97 800 277 800 c 0
 457 800 513 680 513 575 c 0
 513 487 453.662109375 427.55078125 380 364 c 2
 278 276 l 2
 209.092773438 216.55078125 144 149 141 90 c 1
 513 90 l 25
EndSplineSet
EndChar

StartChar: three
Encoding: 51 51 19
Width: 553
Flags: W
HStem: 0 90<196.857 358.134> 380 80<224 354.139> 710 90<209.693 354.452>
VStem: 37 90<163.477 250> 57 90<550 638.133> 401 90<508.152 662.783> 421 90<154.067 312.393>
LayerCount: 2
Fore
SplineSet
224 380 m 1xf2
 224 460 l 1
 274 460 l 2
 354 460 401 505 401 585 c 0
 401 665 354 710 274 710 c 0
 204 710 152 650 147 550 c 1
 57 550 l 17
 62 670 124 800 274 800 c 0
 409 800 491 715 491 585 c 0xec
 491 505 459 450 389 420 c 1
 479 390 511 325 511 235 c 0
 511 95 414 0 274 0 c 0
 94 0 42 150 37 250 c 1
 127 250 l 1
 132 150 184 90 274 90 c 0
 364 90 421 145 421 235 c 0
 421 314.826171875 364 380 274 380 c 2
 224 380 l 1xf2
EndSplineSet
EndChar

StartChar: four
Encoding: 52 52 20
Width: 570
Flags: W
HStem: 0 21G<351 431> 170 80<119 351 431 531> 780 20G<339.655 431>
VStem: 351 80<0 170 250 650>
LayerCount: 2
Fore
SplineSet
351 250 m 25
 351 650 l 25
 119 250 l 25
 351 250 l 25
39 170 m 25
 39 250 l 25
 351 800 l 25
 431 800 l 25
 431 250 l 25
 531 250 l 25
 531 170 l 25
 431 170 l 25
 431 0 l 25
 351 0 l 25
 351 170 l 25
 39 170 l 25
EndSplineSet
EndChar

StartChar: five
Encoding: 53 53 21
Width: 558
Flags: W
HStem: 0 90<192.137 352.376> 460 90<195.72 348.613> 710 90<178 474>
VStem: 36 90<162.08 230> 424 90<168.173 373.119>
LayerCount: 2
Fore
SplineSet
58 400 m 25
 108 800 l 25
 474 800 l 25
 474 710 l 25
 178 710 l 25
 148 500 l 17
 188 530 240 550 290 550 c 0
 380 550 514 490 514 290 c 0
 514 90 405 0 275 0 c 4
 95 0 51 130 36 230 c 5
 126 230 l 17
 141 150 175 90 275 90 c 0
 375 90 424 170 424 270 c 0
 424 375 370 460 275 460 c 0
 225 460 178 450 138 400 c 9
 58 400 l 25
EndSplineSet
EndChar

StartChar: zero
Encoding: 48 48 22
Width: 557
Flags: W
HStem: 0 90<210.619 347.381> 710 90<210.619 347.381>
VStem: 47 90<193.922 606.078> 421 90<193.922 606.078>
LayerCount: 2
Fore
SplineSet
279 710 m 0
 139 710 137 520 137 400 c 0
 137 280 139 90 279 90 c 0
 419 90 421 280 421 400 c 0
 421 520 419 710 279 710 c 0
279 800 m 0
 479 800 511 600 511 400 c 0
 511 200 479 0 279 0 c 0
 79 0 47 200 47 400 c 0
 47 600 79 800 279 800 c 0
EndSplineSet
EndChar

StartChar: percent
Encoding: 37 37 23
Width: 909
Flags: W
HStem: 0 70<633.778 764.222> 270 70<633.778 764.222> 460 70<143.778 274.222> 730 70<143.778 274.222>
VStem: 39 70<564.778 695.222> 309 70<565.423 694.85> 529 70<104.778 235.222> 799 70<104.778 235.222>
LayerCount: 2
Fore
SplineSet
699 270 m 0
 639 270 599 230 599 170 c 0
 599 110 639 70 699 70 c 0
 759 70 799 110 799 170 c 0
 799 230 759 270 699 270 c 0
209 730 m 0
 149 730 109 690 109 630 c 0
 109 570 149 530 209 530 c 0
 269 530 309 570 309 630 c 0
 309 690 269 730 209 730 c 0
679 800 m 25
 759 800 l 25
 229 0 l 25
 149 0 l 25
 679 800 l 25
699 340 m 0
 799 340 869 270 869 170 c 0
 869 70 799 0 699 0 c 0
 599 0 529 70 529 170 c 0
 529 270 599 340 699 340 c 0
209 800 m 0
 309 800 379 719 379 630 c 24
 379 551 309 460 209 460 c 0
 109 460 39 530 39 630 c 0
 39 730 109 800 209 800 c 0
EndSplineSet
EndChar

StartChar: parenleft
Encoding: 40 40 24
Width: 295
Flags: W
HStem: -200 21G<151 261> 780 20G<151 261>
VStem: 43 84<115.402 484.598>
LayerCount: 2
Fore
SplineSet
201 800 m 9
 261 800 l 1
 171 660 127 460 127 300 c 0
 127 140 171 -60 261 -200 c 1
 201 -200 l 17
 101 -70 43 140 43 300 c 0
 43 460 101 670 201 800 c 9
EndSplineSet
EndChar

StartChar: parenright
Encoding: 41 41 25
Width: 293
Flags: W
VStem: 167 84<115.402 484.598>
LayerCount: 2
Fore
SplineSet
93 800 m 9
 33 800 l 1
 123 660 167 460 167 300 c 0
 167 140 123 -60 33 -200 c 1
 93 -200 l 17
 193 -70 251 140 251 300 c 0
 251 460 193 670 93 800 c 9
EndSplineSet
EndChar

StartChar: six
Encoding: 54 54 26
Width: 558
Flags: W
HStem: 0 90<212.848 360.453> 420 90<213.121 360.453> 710 90<215.778 350.716>
VStem: 46 90<420 590.504> 411 90<600 648.141> 436 80<169.297 340.703>
LayerCount: 2
Fore
SplineSet
286 420 m 4xf4
 206 420 146 355 146 255 c 4
 146 155 206 90 286 90 c 4
 366 90 436 155 436 255 c 4
 436 355 366 420 286 420 c 4xf4
281 800 m 4
 391 800 481 720 501 600 c 13
 411 600 l 21xf8
 396 670 341 710 281 710 c 4
 181 710 136 600 136 420 c 5
 156 470 221 510 281 510 c 4
 416 510 516 405 516 255 c 4
 516 105 416 0 281 0 c 4
 81 0 46 200 46 400 c 4
 46 640 111 800 281 800 c 4
EndSplineSet
EndChar

StartChar: seven
Encoding: 55 55 27
Width: 551
Flags: W
HStem: 0 21G<128 238> 710 90<38 422>
VStem: 128 90<0 86.6992>
LayerCount: 2
Fore
SplineSet
512 800 m 1
 512 710 l 17
 352 500 258 230 218 0 c 9
 128 0 l 17
 178 230 252 470 422 710 c 9
 38 710 l 1
 38 800 l 25
 512 800 l 1
EndSplineSet
EndChar

StartChar: eight
Encoding: 56 56 28
Width: 557
Flags: W
HStem: 0 90<196.465 359.535> 390 80<206.985 349.015> 710 90<206.366 349.634>
VStem: 40 90<157.243 323.125> 65 90<521.213 659.27> 401 90<521.213 659.27> 426 90<157.243 323.125>
LayerCount: 2
Fore
SplineSet
278 390 m 0xf2
 188 390 130 330 130 240 c 0
 130 150 188 90 278 90 c 0
 368 90 426 150 426 240 c 0
 426 330 368 390 278 390 c 0xf2
278 710 m 0
 208 710 155 660 155 590 c 0
 155 520 208 470 278 470 c 0
 348 470 401 520 401 590 c 0xec
 401 660 348 710 278 710 c 0
278 800 m 0
 403 800 491 700 491 590 c 0xec
 491 530 465 480 395 430 c 1
 475 385 516 310 516 240 c 0
 516 110 418 0 278 0 c 0
 138 0 40 110 40 240 c 0xf2
 40 310 83 385 163 430 c 1
 93 480 65 530 65 590 c 0
 65 700 153 800 278 800 c 0
EndSplineSet
EndChar

StartChar: nine
Encoding: 57 57 29
Width: 557
Flags: W
HStem: 0 90<206.284 341.222> 290 90<196.547 343.879> 710 90<196.547 344.152>
VStem: 41 80<459.297 630.703> 56 90<151.859 200> 421 90<209.496 380>
LayerCount: 2
Fore
SplineSet
271 380 m 0xf4
 351 380 411 445 411 545 c 0
 411 645 351 710 271 710 c 0
 191 710 121 645 121 545 c 0
 121 445 191 380 271 380 c 0xf4
276 0 m 0
 166 0 76 80 56 200 c 9
 146 200 l 17xec
 161 130 216 90 276 90 c 0
 376 90 421 200 421 380 c 1
 401 330 336 290 276 290 c 0
 141 290 41 395 41 545 c 0
 41 695 141 800 276 800 c 0
 476 800 511 600 511 400 c 0
 511 160 446 0 276 0 c 0
EndSplineSet
EndChar

StartChar: question
Encoding: 63 63 30
Width: 513
Flags: W
HStem: 0 100<205 305> 710 90<179.973 331.496>
VStem: 39 90<530 650.09> 205 100<0 100 200 327.901> 381 90<500.972 658.993>
CounterMasks: 1 38
LayerCount: 2
Fore
SplineSet
205 100 m 25
 305 100 l 25
 305 0 l 25
 205 0 l 25
 205 100 l 25
305 200 m 1
 205 200 l 1
 205 257 l 2
 205 358 250.262695312 382.262695312 293 425 c 0
 327 459 381 505 381 575 c 0
 381 615 370 710 255 710 c 0
 140 710 129 615 129 530 c 9
 39 530 l 17
 39 700 105 800 255 800 c 0
 405 800 471 700 471 575 c 0
 471 500 433 444 389 400 c 0
 347.6171875 358.6171875 305 325 305 245 c 2
 305 200 l 1
EndSplineSet
EndChar

StartChar: B
Encoding: 66 66 31
Width: 646
Flags: W
HStem: 0 90<146 447.26> 370 80<146 420.906> 710 90<146 419.979>
VStem: 56 90<90 370 450 710> 480 90<505.046 654.998> 510 90<149.201 309.99>
LayerCount: 2
Fore
SplineSet
146 450 m 29xf8
 327 450 l 22
 417 450 480 490 480 580 c 4
 480 670 417 710 327 710 c 14
 146 710 l 29
 146 450 l 29xf8
146 90 m 29
 352 90 l 22
 442 90 510 130 510 230 c 4xf4
 510 330 442 370 352 370 c 14
 146 370 l 29
 146 90 l 29
56 0 m 29
 56 800 l 29
 337 800 l 6
 487 800 570 715 570 605 c 4xf8
 570 525 537 440 467 410 c 5
 557 370 600 305 600 205 c 4
 600 75 502 -0 362 0 c 14
 56 0 l 29
EndSplineSet
EndChar

StartChar: C
Encoding: 67 67 32
Width: 721
Flags: W
HStem: 0 90<270.418 474.57> 710 90<270.418 474.57>
VStem: 44 90<263.42 536.58> 583 90<203.906 270 530 596.094>
LayerCount: 2
Fore
SplineSet
673 530 m 1
 583 530 l 1
 563 620 523 710 358 710 c 0
 193 710 134 530 134 400 c 0
 134 270 193 90 358 90 c 0
 523 90 563 180 583 270 c 1
 673 270 l 1
 653 120 558 0 358 0 c 0
 158 0 44 180 44 400 c 0
 44 620 158 800 358 800 c 0
 558 800 653 680 673 530 c 1
EndSplineSet
EndChar

StartChar: D
Encoding: 68 68 33
Width: 682
Flags: W
HStem: 0 90<146 417.016> 710 90<146 417.016>
VStem: 56 90<90 710> 544 90<243.768 556.232>
LayerCount: 2
Fore
SplineSet
146 90 m 25
 321 90 l 18
 466 90 544 200 544 400 c 0
 544 600 466 710 321 710 c 10
 146 710 l 25
 146 90 l 25
56 0 m 25
 56 800 l 25
 337 800 l 18
 522 800 634 650 634 400 c 0
 634 150 522 -0 337 0 c 10
 56 0 l 25
EndSplineSet
EndChar

StartChar: E
Encoding: 69 69 34
Width: 627
Flags: W
HStem: 0 90<146 579> 355 90<146 549> 710 90<146 579>
VStem: 56 90<90 355 445 710>
CounterMasks: 1 e0
LayerCount: 2
Fore
SplineSet
56 0 m 29
 56 800 l 29
 579 800 l 29
 579 710 l 29
 146 710 l 29
 146 445 l 29
 549 445 l 29
 549 355 l 29
 146 355 l 29
 146 90 l 29
 579 90 l 29
 579 0 l 29
 56 0 l 29
EndSplineSet
EndChar

StartChar: F
Encoding: 70 70 35
Width: 587
Flags: W
HStem: 0 21G<56 146> 355 90<146 495> 710 90<146 545>
VStem: 56 90<0 355 445 710>
LayerCount: 2
Fore
SplineSet
56 0 m 25
 56 800 l 25
 545 800 l 25
 545 710 l 25
 146 710 l 25
 146 445 l 25
 495 445 l 25
 495 355 l 25
 146 355 l 25
 146 0 l 25
 56 0 l 25
EndSplineSet
EndChar

StartChar: G
Encoding: 71 71 36
Width: 761
Flags: W
HStem: 0 90<279.731 491.901> 335 80<376 619> 710 90<286.864 501.828>
VStem: 44 90<266.326 520.796> 619 90<216.555 335 545 603.887>
LayerCount: 2
Fore
SplineSet
709 545 m 1
 619 545 l 1
 599 635 541 710 376 710 c 0
 211 710 134 530 134 400 c 0
 134 244.997070312 211 90 376 90 c 0
 541 90 619 184 619 335 c 1
 376 335 l 1
 376 415 l 1
 709 415 l 1
 709 335 l 1
 709 120 576 0 376 0 c 0
 176 0 44 166 44 400 c 0
 44 620 176 800 376 800 c 0
 576 800 689 690 709 545 c 1
EndSplineSet
EndChar

StartChar: H
Encoding: 72 72 37
Width: 676
Flags: W
HStem: 0 21G<56 146 527 617> 360 80<146 527> 780 20G<56 146 527 617>
VStem: 56 90<0 360 440 800> 527 90<0 360 440 800>
LayerCount: 2
Fore
SplineSet
56 0 m 29
 56 800 l 29
 146 800 l 29
 146 440 l 29
 527 440 l 29
 527 800 l 29
 617 800 l 29
 617 0 l 29
 527 0 l 29
 527 360 l 29
 146 360 l 29
 146 0 l 29
 56 0 l 29
EndSplineSet
EndChar

StartChar: I
Encoding: 73 73 38
Width: 205
Flags: W
HStem: 0 21G<56 146> 780 20G<56 146>
VStem: 56 90<0 800>
LayerCount: 2
Fore
SplineSet
56 800 m 1
 146 800 l 1
 146 0 l 1
 56 0 l 1
 56 800 l 1
EndSplineSet
EndChar

StartChar: J
Encoding: 74 74 39
Width: 510
Flags: W
HStem: 0 90<172.183 320.817> 780 20G<362 452>
VStem: 43 90<131.708 280> 362 90<139.313 800>
LayerCount: 2
Fore
SplineSet
362 800 m 25
 452 800 l 25
 452 230 l 18
 452 74 382 0 247 0 c 0
 112 0 43 80 43 220 c 10
 43 280 l 25
 133 280 l 25
 133 230 l 18
 133 160 147 90 247 90 c 0
 347 90 362 160 362 260 c 10
 362 800 l 25
EndSplineSet
EndChar

StartChar: K
Encoding: 75 75 40
Width: 670
Flags: W
HStem: 0 21G<56 146 502.805 635> 780 20G<56 146 496.778 635>
VStem: 56 90<0 285 395 800>
LayerCount: 2
Fore
SplineSet
56 800 m 25
 146 800 l 25
 146 395 l 25
 515 800 l 25
 635 800 l 1
 328 477 l 25
 635 0 l 1
 515 0 l 1
 265 410 l 1
 146 285 l 1
 146 0 l 1
 56 0 l 25
 56 800 l 25
EndSplineSet
EndChar

StartChar: L
Encoding: 76 76 41
Width: 554
Flags: W
HStem: 0 90<146 509> 780 20G<56 146>
VStem: 56 90<90 800>
LayerCount: 2
Fore
SplineSet
56 800 m 25
 146 800 l 25
 146 90 l 25
 509 90 l 25
 509 0 l 25
 56 0 l 25
 56 800 l 25
EndSplineSet
EndChar

StartChar: M
Encoding: 77 77 42
Width: 801
Flags: W
HStem: 0 21G<56 146 343.029 454.971 652 742> 780 20G<56 192.086 605.914 742>
VStem: 56 90<0 680> 652 90<0 680>
LayerCount: 2
Fore
SplineSet
56 0 m 29
 56 800 l 29
 186 800 l 29
 399 100 l 29
 612 800 l 29
 742 800 l 29
 742 0 l 29
 652 0 l 29
 652 680 l 29
 449 0 l 29
 349 0 l 29
 146 680 l 29
 146 0 l 29
 56 0 l 29
EndSplineSet
EndChar

StartChar: N
Encoding: 78 78 43
Width: 685
Flags: W
HStem: 0 21G<56 146 514.485 626> 780 20G<56 167.515 536 626>
VStem: 56 90<0 660> 536 90<140 800>
LayerCount: 2
Fore
SplineSet
56 0 m 29
 56 800 l 29
 156 800 l 29
 536 140 l 29
 536 800 l 29
 626 800 l 29
 626 0 l 29
 526 0 l 29
 146 660 l 29
 146 0 l 29
 56 0 l 29
EndSplineSet
EndChar

StartChar: O
Encoding: 79 79 44
Width: 796
Flags: W
HStem: 0 90<294.903 497.097> 710 90<294.903 492.745>
VStem: 44 90<268.419 531.581> 658 90<268.419 524.689>
LayerCount: 2
Fore
SplineSet
396 710 m 4
 241 710 134 580 134 400 c 4
 134 220 241 90 396 90 c 4
 551 90 658 220 658 400 c 4
 658 570 551 710 396 710 c 4
396 800 m 4
 606 800 748 630 748 400 c 4
 748 170 606 0 396 0 c 4
 186 0 44 170 44 400 c 4
 44 630 186 800 396 800 c 4
EndSplineSet
EndChar

StartChar: P
Encoding: 80 80 45
Width: 628
Flags: W
HStem: 0 21G<56 146> 350 80<146 412.716> 720 80<146 414.274>
VStem: 56 90<0 350 430 720> 492 90<503.483 646.517>
LayerCount: 2
Fore
SplineSet
146 430 m 29
 332 430 l 6
 422 430 492 495 492 575 c 4
 492 655 423 720 333 720 c 6
 146 720 l 29
 146 430 l 29
146 350 m 29
 146 0 l 29
 56 0 l 29
 56 800 l 29
 357 800 l 6
 502 800 582 710 582 575 c 4
 582 440 497 350 357 350 c 6
 146 350 l 29
EndSplineSet
EndChar

StartChar: Q
Encoding: 81 81 46
Width: 795
Flags: W
HStem: 0 90<294.903 497.998> 710 90<294.903 492.745>
VStem: 44 90<268.419 531.581> 658 90<268.411 524.689>
LayerCount: 2
Fore
SplineSet
428 173 m 1
 476 231 l 1
 565 156 l 1
 623 211 658 298 658 400 c 0
 658 570 551 710 396 710 c 0
 241 710 134 580 134 400 c 0
 134 220 241 90 396 90 c 0
 434 90 469 98 500 112 c 1
 428 173 l 1
396 800 m 0
 606 800 748 630 748 400 c 0
 748 276 706 169 635 97 c 1
 725 22 l 1
 677 -36 l 1
 575 49 l 1
 524 17 464 0 396 0 c 0
 186 0 44 170 44 400 c 0
 44 630 186 800 396 800 c 0
EndSplineSet
EndChar

StartChar: R
Encoding: 82 82 47
Width: 676
Flags: W
HStem: 0 21G<56 146 533.486 642> 350 80<146 393> 720 80<146 443.115>
VStem: 56 90<0 350 430 720> 522 90<498.63 642.378>
LayerCount: 2
Fore
SplineSet
146 430 m 29
 362 430 l 6
 452 430 522 490 522 570 c 4
 522 650 453 720 363 720 c 6
 146 720 l 29
 146 430 l 29
146 350 m 29
 146 0 l 29
 56 0 l 29
 56 800 l 29
 387 800 l 6
 532 800 612 705 612 570 c 4
 612 484.784179688 553 413 473 373 c 5
 642 0 l 5
 542 0 l 5
 393 350 l 13
 146 350 l 29
EndSplineSet
EndChar

StartChar: S
Encoding: 83 83 48
Width: 667
Flags: W
HStem: 0 90<239.02 433.126> 710 90<232.695 430.287>
VStem: 45 90<183.452 250 519.067 632.22> 528 90<167.628 278.577 550 617.632>
LayerCount: 2
Fore
SplineSet
277 460 m 2
 187.477539062 484.729492188 135 515 135 575 c 0
 135 645 232 710 332 710 c 0
 432 710 523 650 528 550 c 1
 618 550 l 1
 613 670 512 800 332 800 c 0
 152 800 45 675 45 575 c 4
 45 485 105.903320312 417.651367188 206 390 c 2
 387 340 l 2
 477.03515625 315.127929688 528 282 528 222 c 0
 528 152 432 90 332 90 c 0
 232 90 140 160 135 250 c 1
 45 250 l 1
 50 130 152 0 332 0 c 0
 512 0 618 122 618 222 c 0
 618 312 557.83984375 382.419921875 458 410 c 2
 277 460 l 2
EndSplineSet
EndChar

StartChar: dollar
Encoding: 36 36 49
Width: 573
Flags: W
HStem: 0 70<195.305 256 315 381.219> 730 70<189.781 256 315 375.695>
VStem: 43 80<153.496 250 519.857 657.766> 256 59<-100 0 70 346 450 730 800 900> 448 80<139.943 276.811 550 646.504>
CounterMasks: 1 38
LayerCount: 2
Fore
SplineSet
256 900 m 1
 315 900 l 1
 315 800 l 1
 455 800 528 690 528 550 c 1
 448 550 l 1
 448 640 395 730 315 730 c 1
 315 433 l 1
 445 395 528 352 528 222 c 0
 528 110 455 0 315 0 c 1
 315 -100 l 1
 256 -100 l 1
 256 0 l 1
 116 0 43 110 43 250 c 1
 123 250 l 1
 123 160 176 70 256 70 c 1
 256 365 l 1
 126 408 43 445 43 575 c 0
 43 687 116 800 256 800 c 1
 256 900 l 1
256 450 m 1
 256 730 l 1
 176 730 123 647 123 585 c 0
 123 515 186 470 256 450 c 1
315 70 m 1
 395 70 448 150 448 212 c 0
 448 282 385 323 315 346 c 1
 315 70 l 1
EndSplineSet
EndChar

StartChar: T
Encoding: 84 84 50
Width: 653
Flags: W
HStem: 0 21G<280 370> 710 90<39 280 370 611>
VStem: 280 90<0 710>
LayerCount: 2
Fore
SplineSet
39 800 m 29
 611 800 l 29
 611 710 l 29
 370 710 l 29
 370 0 l 29
 280 0 l 29
 280 710 l 29
 39 710 l 29
 39 800 l 29
EndSplineSet
EndChar

StartChar: U
Encoding: 85 85 51
Width: 671
Flags: W
HStem: 0 80<232.312 433.688> 780 20G<53 143 523 613>
VStem: 53 90<164.058 800> 523 90<164.058 800>
LayerCount: 2
Fore
SplineSet
53 800 m 25
 143 800 l 25
 143 248 l 18
 143 148 213 80 333 80 c 0
 453 80 523 148 523 248 c 10
 523 800 l 1
 613 800 l 25
 613 248 l 18
 613 128 533 0 333 0 c 0
 133 0 53 128 53 248 c 10
 53 800 l 25
EndSplineSet
EndChar

StartChar: V
Encoding: 86 86 52
Width: 682
Flags: W
HStem: 0 21G<284.55 397.425> 780 20G<33 139.047 541.983 648>
LayerCount: 2
Fore
SplineSet
33 800 m 25
 133 800 l 25
 341 112 l 25
 548 800 l 25
 648 800 l 25
 391 0 l 25
 291 0 l 25
 33 800 l 25
EndSplineSet
EndChar

StartChar: W
Encoding: 87 87 53
Width: 975
Flags: W
HStem: 0 21G<229.95 339.537 634.463 744.025> 780 20G<33 137.537 431.493 541.537 835.493 940>
LayerCount: 2
Fore
SplineSet
33 800 m 25
 133 800 l 25
 285 130 l 25
 436 800 l 25
 537 800 l 25
 689 130 l 25
 840 800 l 25
 940 800 l 25
 739 0 l 25
 639 0 l 25
 487 670 l 25
 335 0 l 25
 235 0 l 25
 33 800 l 25
EndSplineSet
EndChar

StartChar: X
Encoding: 88 88 54
Width: 699
Flags: W
HStem: 0 21G<35 157.364 539.697 662> 780 20G<35 157.364 539.697 662>
LayerCount: 2
Fore
SplineSet
35 800 m 29
 145 800 l 29
 349 470 l 29
 552 800 l 29
 662 800 l 29
 404 400 l 29
 662 0 l 29
 552 0 l 29
 349 330 l 29
 145 0 l 29
 35 0 l 29
 294 400 l 29
 35 800 l 29
EndSplineSet
EndChar

StartChar: Y
Encoding: 89 89 55
Width: 711
Flags: W
HStem: 0 21G<305 405> 780 20G<31 151.974 558.026 679>
VStem: 305 100<0 320>
LayerCount: 2
Fore
SplineSet
31 800 m 25
 141 800 l 25
 355 410 l 25
 569 800 l 25
 679 800 l 25
 405 320 l 1
 405 0 l 1
 305 0 l 1
 305 320 l 1
 31 800 l 25
EndSplineSet
EndChar

StartChar: Z
Encoding: 90 90 56
Width: 648
Flags: W
HStem: 0 90<161 601> 710 90<46 486>
LayerCount: 2
Fore
SplineSet
46 710 m 25
 46 800 l 25
 601 800 l 25
 601 710 l 25
 161 90 l 25
 601 90 l 25
 601 0 l 25
 46 0 l 25
 46 90 l 25
 486 710 l 25
 46 710 l 25
EndSplineSet
EndChar

StartChar: bracketleft
Encoding: 91 91 57
Width: 277
Flags: W
HStem: -200 80<137 237> 720 80<137 237>
VStem: 57 180<-200 -120 720 800> 57 80<-120 720>
LayerCount: 2
Fore
SplineSet
57 800 m 29xe0
 237 800 l 29
 237 720 l 29xe0
 137 720 l 29
 137 -120 l 29xd0
 237 -120 l 29
 237 -200 l 29
 57 -200 l 29
 57 800 l 29xe0
EndSplineSet
EndChar

StartChar: backslash
Encoding: 92 92 58
Width: 470
Flags: W
HStem: -200 21G<342.68 439> 780 20G<33 129.32>
LayerCount: 2
Fore
SplineSet
349 -200 m 5
 33 800 l 5
 123 800 l 5
 439 -200 l 5
 349 -200 l 5
EndSplineSet
EndChar

StartChar: bracketright
Encoding: 93 93 59
Width: 276
Flags: W
HStem: -200 80<38 138> 720 80<38 138>
VStem: 38 180<-200 -120 720 800> 138 80<-120 720>
LayerCount: 2
Fore
SplineSet
218 -200 m 25xe0
 38 -200 l 25
 38 -120 l 25xe0
 138 -120 l 25
 138 720 l 25xd0
 38 720 l 25
 38 800 l 25
 218 800 l 25
 218 -200 l 25xe0
EndSplineSet
EndChar

StartChar: asciicircum
Encoding: 94 94 60
Width: 457
Flags: W
HStem: 780 20G<185.25 271.75>
LayerCount: 2
Fore
SplineSet
193 800 m 25
 264 800 l 25
 419 400 l 25
 349 400 l 25
 229 720 l 25
 108 400 l 25
 38 400 l 25
 193 800 l 25
EndSplineSet
EndChar

StartChar: underscore
Encoding: 95 95 61
Width: 719
Flags: W
HStem: -140 50<59 659>
LayerCount: 2
Fore
SplineSet
59 -90 m 1
 659 -90 l 1
 659 -140 l 1
 59 -140 l 5
 59 -90 l 1
EndSplineSet
EndChar

StartChar: grave
Encoding: 96 96 62
Width: 298
Flags: W
HStem: 650 150
VStem: 44 210
LayerCount: 2
Fore
SplineSet
44 800 m 29
 154 800 l 29
 254 650 l 29
 194 650 l 29
 44 800 l 29
EndSplineSet
EndChar

StartChar: a
Encoding: 97 97 63
Width: 576
Flags: W
HStem: 0 70<163.761 309.247 444.097 533.299> 495 80<184.71 356.278>
VStem: 41 80<110.91 218.068> 64 80<395 453.196> 391 80<138.236 290 350.158 463.842>
LayerCount: 2
Fore
SplineSet
391 190 m 6xe8
 391 290 l 5
 361 275 342 265 252 255 c 4
 162 245 121 219 121 164 c 4
 121 109 180.990234375 70 231 70 c 4
 281 70 321.939453125 89.939453125 355 123 c 4
 370 138 391 160 391 190 c 6xe8
64 395 m 21xd8
 64 534 168 575 268 575 c 4
 388 575 471 525 471 425 c 6
 471 110 l 6
 471 80 484 68 514 68 c 4
 519 68 524 68 534 70 c 5
 534 10 l 5
 514 3 494 0 474 0 c 4
 415 0 396 40 391 80 c 5
 331 25 279 0 213 0 c 4
 113 0 41 64 41 164 c 4xe8
 41 234 69 273 129 298 c 4
 159.9609375 310.900390625 177 315 297 330 c 4
 367.044921875 338.755859375 391 355 391 390 c 6
 391 415 l 6
 391 465 343 495 268 495 c 4
 188 495 144 455 144 395 c 5
 64 395 l 21xd8
EndSplineSet
EndChar

StartChar: b
Encoding: 98 98 64
Width: 573
Flags: W
HStem: 0 80<222.537 359.301> 495 80<215.564 365.958> 780 20G<56 136>
VStem: 56 80<0 90 184.409 404.399 485 800> 445 80<185.023 405.06>
LayerCount: 2
Fore
SplineSet
291 495 m 4
 201 495 136 417 136 297 c 4
 136 177 201 80 291 80 c 4
 381 80 445 177 445 297 c 4
 445 417 381 495 291 495 c 4
56 800 m 29
 136 800 l 29
 136 485 l 21
 176 545 228 575 298 575 c 4
 438 575 525 467 525 297 c 4
 525 127 437 0 297 0 c 4
 227 0 176 30 136 90 c 13
 136 0 l 29
 56 0 l 29
 56 800 l 29
EndSplineSet
EndChar

StartChar: c
Encoding: 99 99 65
Width: 533
Flags: W
HStem: 0 80<198.017 349.062> 495 80<196.6 351.561>
VStem: 45 90<157.711 418.012> 405 80<131.864 204 372 444.029>
LayerCount: 2
Fore
SplineSet
485 372 m 13
 405 372 l 21
 405 462 335 495 265 495 c 4
 175 495 135 418 135 288 c 4
 135 158 175 80 265 80 c 4
 335 80 405 114 405 204 c 13
 485 204 l 21
 485 74 390 0 265 0 c 4
 125 0 45 118 45 288 c 4
 45 458 125 575 265 575 c 4
 390 575 485 502 485 372 c 13
EndSplineSet
EndChar

StartChar: d
Encoding: 100 100 66
Width: 572
Flags: W
HStem: 0 80<209.699 346.463> 495 80<203.042 353.436> 780 20G<433 513>
VStem: 44 80<185.023 405.06> 433 80<0 90 184.409 404.399 485 800>
LayerCount: 2
Fore
SplineSet
278 495 m 0
 188 495 124 417 124 297 c 0
 124 177 188 80 278 80 c 0
 368 80 433 177 433 297 c 0
 433 417 368 495 278 495 c 0
513 800 m 25
 513 0 l 25
 433 0 l 25
 433 90 l 17
 393 30 342 0 272 0 c 4
 132 0 44 127 44 297 c 4
 44 467 131 575 271 575 c 4
 341 575 393 545 433 485 c 9
 433 800 l 25
 513 800 l 25
EndSplineSet
EndChar

StartChar: e
Encoding: 101 101 67
Width: 565
Flags: W
HStem: 0 80<213.162 365.587> 263 70<134 427> 495 80<205.527 356.301>
VStem: 44 90<171.281 263 333 417.238> 427 90<138.889 183 333 410.333>
LayerCount: 2
Fore
SplineSet
134 333 m 9
 427 333 l 17
 427 423 371 495 281 495 c 0
 191 495 134 423 134 333 c 9
517 263 m 9
 134 263 l 17
 134 173 191 80 281 80 c 0
 351 80 407 113 427 183 c 9
 517 183 l 17
 497 73 401 0 281 0 c 0
 141 0 44 118 44 288 c 0
 44 458 141 575 281 575 c 0
 421 575 517 463 517 263 c 9
EndSplineSet
EndChar

StartChar: f
Encoding: 102 102 68
Width: 326
Flags: W
HStem: 0 21G<109 189> 505 70<39 109 189 279> 723 77<208.487 278.299>
VStem: 109 80<0 505 575 702.969>
LayerCount: 2
Fore
SplineSet
189 575 m 25
 279 575 l 25
 279 505 l 25
 189 505 l 25
 189 0 l 25
 109 0 l 25
 109 505 l 25
 39 505 l 25
 39 575 l 25
 109 575 l 25
 109 640 l 2
 109 730 139 800 229 800 c 0
 249 800 259 798 279 790 c 1
 279 720 l 1
 269 722 256 723 249 723 c 0
 209 723 189 680 189 640 c 2
 189 575 l 25
EndSplineSet
EndChar

StartChar: g
Encoding: 103 103 69
Width: 571
Flags: W
HStem: -200 70<181.051 357.662> 0 80<203.042 353.436> 495 80<209.699 346.463>
VStem: 44 80<-79.7588 -40 169.94 389.977> 433 80<-40.9836 90 170.601 390.591 485 575>
LayerCount: 2
Fore
SplineSet
278 80 m 0
 368 80 433 158 433 278 c 0
 433 398 368 495 278 495 c 0
 188 495 124 398 124 278 c 0
 124 158 188 80 278 80 c 0
433 90 m 1
 393 30 341 0 271 0 c 0
 131 0 44 108 44 278 c 0
 44 448 132 575 272 575 c 0
 342 575 393 545 433 485 c 9
 433 575 l 25
 513 575 l 25
 513 105 l 18
 513 -95 429 -200 279 -200 c 0
 164 -200 54 -140 44 -40 c 9
 124 -40 l 17
 134 -100 209 -130 279 -130 c 0
 379 -130 433 -60 433 90 c 1
EndSplineSet
EndChar

StartChar: h
Encoding: 104 104 70
Width: 527
Flags: W
HStem: 0 21G<56 136 392 472> 505 70<207.812 346.894> 780 20G<56 136>
VStem: 56 80<0 429.456 485 800> 392 80<0 463.414>
LayerCount: 2
Fore
SplineSet
136 0 m 25
 56 0 l 25
 56 800 l 25
 136 800 l 25
 136 485 l 17
 176 545 228 575 298 575 c 0
 398 575 472 522 472 432 c 2
 472 0 l 25
 392 0 l 25
 392 405 l 18
 392 475 323 505 273 505 c 0
 183 505 136 425 136 325 c 14
 136 0 l 25
EndSplineSet
EndChar

StartChar: i
Encoding: 105 105 71
Width: 198
Flags: W
HStem: 0 21G<56 140> 555 20G<56 140> 665 100<56 140>
VStem: 56 84<0 575 665 765>
LayerCount: 2
Fore
SplineSet
56 575 m 25
 140 575 l 25
 140 0 l 25
 56 0 l 25
 56 575 l 25
56 765 m 25
 140 765 l 25
 140 665 l 25
 56 665 l 25
 56 765 l 25
EndSplineSet
EndChar

StartChar: j
Encoding: 106 106 72
Width: 257
Flags: W
HStem: -200 77<29.7006 98.699> 555 20G<115 199> 665 100<115 199>
VStem: 115 84<-106.548 575 665 765>
LayerCount: 2
Fore
SplineSet
199 -40 m 2
 199 -130 169 -200 79 -200 c 0
 59 -200 49 -198 29 -190 c 1
 29 -120 l 1
 39 -122 52 -123 59 -123 c 0
 99 -123 115 -80 115 -40 c 2
 115 575 l 25
 199 575 l 25
 199 -40 l 2
115 765 m 25
 199 765 l 25
 199 665 l 25
 115 665 l 25
 115 765 l 25
EndSplineSet
EndChar

StartChar: k
Encoding: 107 107 73
Width: 505
Flags: W
HStem: 0 21G<56 136 357.781 468> 555 20G<347.193 468> 780 20G<56 136>
VStem: 56 80<0 252 352 800>
LayerCount: 2
Fore
SplineSet
56 800 m 25
 136 800 l 25
 136 352 l 25
 368 575 l 25
 468 575 l 1
 269 381 l 25
 468 0 l 1
 368 0 l 1
 205 319 l 1
 136 252 l 1
 136 0 l 1
 56 0 l 25
 56 800 l 25
EndSplineSet
EndChar

StartChar: l
Encoding: 108 108 74
Width: 199
Flags: W
HStem: 0 21G<56 140> 780 20G<56 140>
VStem: 56 84<0 800>
LayerCount: 2
Fore
SplineSet
56 800 m 1
 140 800 l 5
 140 0 l 5
 56 0 l 1
 56 800 l 1
EndSplineSet
EndChar

StartChar: m
Encoding: 109 109 75
Width: 790
Flags: W
HStem: 0 21G<55 135 355 435 655 735> 505 70<197.894 319.452 490.726 619.08>
VStem: 55 80<0 442.859 485 575> 355 80<0 442.789> 655 80<0 471.178>
CounterMasks: 1 38
LayerCount: 2
Fore
SplineSet
430 505 m 1
 470 565 509 575 579 575 c 0
 679 575 735 522 735 432 c 2
 735 0 l 25
 655 0 l 25
 655 405 l 18
 655 475 604 505 554 505 c 4
 484 505 435 435 435 365 c 10
 435 0 l 9
 355 0 l 25
 355 405 l 18
 355 475 304 505 254 505 c 0
 184 505 135 435 135 365 c 10
 135 0 l 25
 55 0 l 1
 55 575 l 25
 135 575 l 25
 135 485 l 1
 175 545 209 575 279 575 c 0
 349 575 400 560 430 505 c 1
EndSplineSet
EndChar

StartChar: s
Encoding: 115 115 76
Width: 516
Flags: W
HStem: 0 80<177.963 349.305> 495 80<162.369 333.806>
VStem: 43 80<132.658 190 367 458.54> 388 80<116.46 208.231 385 442.342>
LayerCount: 2
Fore
SplineSet
468 385 m 9
 388 385 l 17
 383 445 336 495 256 495 c 0
 176 495 123 465 123 405 c 0
 123 365 166 353 226 338 c 10
 306 318 l 18
 404.587890625 293.352539062 468 250 468 170 c 0
 468 60 386 0 256 0 c 0
 126 0 48 70 43 190 c 9
 123 190 l 17
 128 130 176 80 256 80 c 0
 336 80 388 110 388 170 c 0
 388 210 346.235351562 222.94140625 286 238 c 10
 206 258 l 18
 106.470703125 282.8828125 43 325 43 405 c 0
 43 515 126 575 256 575 c 0
 386 575 463 505 468 385 c 9
EndSplineSet
EndChar

StartChar: n
Encoding: 110 110 77
Width: 526
Flags: W
HStem: 0 21G<55 135 391 471> 505 70<206.812 345.894>
VStem: 55 80<0 431.719 485 575> 391 80<0 463.414>
LayerCount: 2
Fore
SplineSet
135 0 m 29
 55 0 l 5
 55 575 l 29
 135 575 l 29
 135 485 l 5
 175 545 227 575 297 575 c 4
 397 575 471 522 471 432 c 6
 471 0 l 29
 391 0 l 29
 391 405 l 22
 391 475 322 505 272 505 c 4
 182 505 135 425 135 335 c 14
 135 0 l 29
EndSplineSet
EndChar

StartChar: o
Encoding: 111 111 78
Width: 568
Flags: W
HStem: 0 80<205.067 358.933> 495 80<203.409 360.591>
VStem: 45 80<171.376 404.418> 439 80<171.376 404.418>
LayerCount: 2
Fore
SplineSet
282 495 m 4
 192 495 125 428 125 288 c 4
 125 148 192 80 282 80 c 4
 372 80 439 148 439 288 c 4
 439 428 372 495 282 495 c 4
282 575 m 4
 432 575 519 468 519 288 c 4
 519 108 432 0 282 0 c 4
 132 0 45 108 45 288 c 4
 45 468 132 575 282 575 c 4
EndSplineSet
EndChar

StartChar: p
Encoding: 112 112 79
Width: 571
Flags: W
HStem: -200 21G<54 134> 0 80<213.564 363.958> 495 80<220.537 357.301>
VStem: 54 80<-200 90 170.601 390.591 485 575> 443 80<169.94 389.977>
LayerCount: 2
Fore
SplineSet
289 80 m 0
 379 80 443 158 443 278 c 0
 443 398 379 495 289 495 c 0
 199 495 134 398 134 278 c 0
 134 158 199 80 289 80 c 0
54 -200 m 25
 54 575 l 25
 134 575 l 25
 134 485 l 17
 174 545 225 575 295 575 c 0
 435 575 523 448 523 278 c 0
 523 108 436 0 296 0 c 0
 226 0 174 30 134 90 c 9
 134 -200 l 25
 54 -200 l 25
EndSplineSet
EndChar

StartChar: q
Encoding: 113 113 80
Width: 571
Flags: W
HStem: -200 21G<433 513> 0 80<203.042 353.436> 495 80<209.699 346.463>
VStem: 44 80<169.94 389.977> 433 80<-200 90 170.601 390.591 485 575>
LayerCount: 2
Fore
SplineSet
278 80 m 0
 368 80 433 158 433 278 c 0
 433 398 368 495 278 495 c 0
 188 495 124 398 124 278 c 0
 124 158 188 80 278 80 c 0
513 -200 m 25
 433 -200 l 25
 433 90 l 17
 393 30 341 0 271 0 c 0
 131 0 44 108 44 278 c 0
 44 448 132 575 272 575 c 0
 342 575 393 545 433 485 c 9
 433 575 l 25
 513 575 l 25
 513 -200 l 25
EndSplineSet
EndChar

StartChar: r
Encoding: 114 114 81
Width: 355
Flags: W
HStem: 495 80<196.063 307>
VStem: 55 80<325 432.606>
LayerCount: 2
Fore
SplineSet
307 490 m 1
 307 570 l 1
 297 573 287 575 277 575 c 0
 227 575 185 565 135 485 c 1
 135 575 l 25
 55 575 l 25
 55 0 l 1
 135 0 l 25
 135 325 l 2
 135 455 197 495 277 495 c 0
 287 495 297 493 307 490 c 1
  Spiro
    307 490 v
    307 570 v
    297.01 572.627 o
    286.99 574.372 o
    277 575 o
    224.676 569.458 o
    180.661 543.849 o
    135 485 v
    135 575 v
    55 575 v
    55 0 v
    135 0 v
    135 325 ]
    145.125 422.332 o
    186.915 477.628 o
    277 495 o
    286.99 494.372 o
    297.01 492.627 o
    0 0 z
  EndSpiro
EndSplineSet
EndChar

StartChar: t
Encoding: 116 116 82
Width: 326
Flags: W
HStem: 0 77<192.744 278.178> 505 70<39 109 189 279>
VStem: 109 80<80.1673 505 575 720>
LayerCount: 2
Fore
SplineSet
189 505 m 25
 189 127 l 2
 189 87 199 77 239 77 c 0
 254 77 269 78 279 80 c 1
 279 10 l 1
 254 3 229 0 209 0 c 0
 139 0 109 30 109 80 c 2
 109 505 l 25
 39 505 l 25
 39 575 l 25
 109 575 l 25
 109 720 l 25
 189 720 l 25
 189 575 l 25
 279 575 l 25
 279 505 l 25
 189 505 l 25
EndSplineSet
EndChar

StartChar: u
Encoding: 117 117 83
Width: 525
Flags: W
HStem: 0 70<176.106 315.188> 555 20G<51 131 387 467>
VStem: 51 80<111.586 575> 387 80<0 90 143.281 575>
LayerCount: 2
Fore
SplineSet
387 575 m 25
 467 575 l 1
 467 0 l 25
 387 0 l 25
 387 90 l 1
 347 30 295 0 225 0 c 0
 125 0 51 53 51 143 c 2
 51 575 l 25
 131 575 l 25
 131 170 l 18
 131 100 200 70 250 70 c 0
 340 70 387 150 387 240 c 10
 387 575 l 25
EndSplineSet
EndChar

StartChar: v
Encoding: 118 118 84
Width: 551
Flags: W
HStem: 0 21G<222.287 325.713> 555 20G<36 132.232 415.768 512>
LayerCount: 2
Fore
SplineSet
36 575 m 25
 126 575 l 25
 274 100 l 25
 422 575 l 25
 512 575 l 25
 319 0 l 25
 229 0 l 25
 36 575 l 25
EndSplineSet
EndChar

StartChar: w
Encoding: 119 119 85
Width: 779
Flags: W
HStem: 0 21G<489.441 599.043> 555 20G<37 131.559 333.484 442.559 644.484 739>
LayerCount: 2
Fore
SplineSet
37 575 m 25
 127 575 l 25
 233 110 l 25
 338 575 l 25
 438 575 l 25
 544 110 l 25
 649 575 l 25
 739 575 l 25
 594 0 l 25
 494 0 l 1
 388 465 l 25
 283 2 l 1
 183 2 l 25
 37 575 l 25
EndSplineSet
EndChar

StartChar: x
Encoding: 120 120 86
Width: 534
Flags: W
HStem: 0 21G<38 149.636 382.364 494> 555 20G<38 149.636 382.364 494>
LayerCount: 2
Fore
SplineSet
38 575 m 5
 138 575 l 5
 266 355 l 5
 394 575 l 5
 494 575 l 5
 311 288 l 5
 494 0 l 29
 394 0 l 29
 266 220 l 29
 138 0 l 29
 38 0 l 29
 221 288 l 29
 38 575 l 5
EndSplineSet
EndChar

StartChar: y
Encoding: 121 121 87
Width: 533
Flags: W
HStem: -200 80<75.8185 174.393> 555 20G<36 131.89 397.67 494>
LayerCount: 2
Fore
SplineSet
305 0 m 1053
  Spiro
    305 0 {
    0 0 z
  EndSpiro
215 0 m 5
 36 575 l 29
 126 575 l 29
 260 120 l 29
 404 575 l 29
 494 575 l 29
 270 -105 l 22
 245.576171875 -179.142578125 190 -200 130 -200 c 4
 110 -200 90 -195 75 -185 c 13
 75 -115 l 21
 95 -120 105 -120 120 -120 c 4
 155 -120 173.78125 -109.91796875 185 -80 c 14
 215 0 l 5
EndSplineSet
EndChar

StartChar: z
Encoding: 122 122 88
Width: 489
Flags: W
HStem: 0 80<148 439> 495 80<48 339>
LayerCount: 2
Fore
SplineSet
48 575 m 25
 439 575 l 25
 439 495 l 25
 148 80 l 25
 439 80 l 25
 439 0 l 25
 48 0 l 25
 48 80 l 25
 339 495 l 25
 48 495 l 25
 48 575 l 25
EndSplineSet
EndChar

StartChar: braceleft
Encoding: 123 123 89
Width: 314
Flags: W
HStem: -200 70<206.739 275> 265 70<35 80.1416> 730 70<206.739 275>
VStem: 115 80<-118.767 225.908 374.092 718.767>
CounterMasks: 1 e0
LayerCount: 2
Fore
SplineSet
275 800 m 29
 275 730 l 29
 260 730 l 22
 210 730 195 710 195 660 c 14
 195 470 l 22
 195 390 165 320 115 300 c 5
 165 280 195 210 195 130 c 14
 195 -60 l 22
 195 -110 210 -130 260 -130 c 14
 275 -130 l 29
 275 -200 l 29
 235 -200 l 22
 165 -200 115 -140 115 -60 c 14
 115 115 l 22
 115 205 95 255 35 265 c 13
 35 335 l 21
 95 345 115 395 115 485 c 14
 115 660 l 22
 115 740 165 800 235 800 c 14
 275 800 l 29
EndSplineSet
EndChar

StartChar: braceright
Encoding: 125 125 90
Width: 313
Flags: W
HStem: -200 70<37 105.261> 265 70<231.858 277> 730 70<37 105.261>
VStem: 117 80<-118.767 225.908 374.092 718.767>
CounterMasks: 1 e0
LayerCount: 2
Fore
SplineSet
37 -200 m 25
 37 -130 l 25
 52 -130 l 18
 102 -130 117 -110 117 -60 c 10
 117 130 l 18
 117 210 147 280 197 300 c 1
 147 320 117 390 117 470 c 10
 117 660 l 18
 117 710 102 730 52 730 c 10
 37 730 l 25
 37 800 l 25
 77 800 l 18
 147 800 197 740 197 660 c 10
 197 485 l 18
 197 395 217 345 277 335 c 9
 277 265 l 17
 217 255 197 205 197 115 c 10
 197 -60 l 18
 197 -140 147 -200 77 -200 c 10
 37 -200 l 25
EndSplineSet
EndChar

StartChar: bar
Encoding: 124 124 91
Width: 195
Flags: W
HStem: -200 21G<57 137> 780 20G<57 137>
VStem: 57 80<-200 800>
LayerCount: 2
Fore
SplineSet
57 800 m 1
 137 800 l 1
 137 -200 l 1
 57 -200 l 1
 57 800 l 1
EndSplineSet
EndChar

StartChar: asciitilde
Encoding: 126 126 92
Width: 543
Flags: W
HStem: 315 80<321.703 419.96> 405 80<122.04 220.297>
VStem: 47 60<315 391.366> 435 60<408.634 485>
LayerCount: 2
Fore
SplineSet
47 315 m 17
 47 415 87 485 167 485 c 0
 187 485 207.438476562 474.862304688 217 470 c 2
 335 410 l 2
 346.986328125 403.905273438 360 395 375 395 c 0
 425 395 435 435 435 485 c 1
 495 485 l 17
 495 385 455 315 375 315 c 0
 355 315 335.7734375 324.521484375 325 330 c 2
 207 390 l 2
 197.438476562 394.862304688 182 405 167 405 c 0
 117 405 107 365 107 315 c 9
 47 315 l 17
EndSplineSet
EndChar

StartChar: ampersand
Encoding: 38 38 93
Width: 657
Flags: W
HStem: 0 80<189.336 332.05> 720 80<229.797 346.954>
VStem: 39 84<153.157 305.827> 120 82<547.49 690.428> 375 79<551.855 689.438> 479 80<265.081 368>
LayerCount: 2
Fore
SplineSet
272 488 m 1xdc
 352 538 375 568 375 608 c 0
 375 678 348 720 288 720 c 0
 228 720 202 678 202 608 c 0
 202 568 222 548 272 488 c 1xdc
405 160 m 1
 245 394 l 1
 155 334 123 296.665039062 123 237 c 0xec
 123 157 174 80 254 80 c 0
 304 80 345 100 405 160 c 1
624 0 m 1
 514 0 l 25
 453 90 l 17
 393 30 344 0 244 0 c 0
 124 0 39 93 39 223 c 0xec
 39 323 77 378 207 448 c 1
 147 528 120 563 120 623 c 0xdc
 120 723 191 800 291 800 c 0
 391 800 454 718 454 618 c 0
 454 538 410 494 310 434 c 9
 449 248 l 17
 469 283 479 328 479 368 c 9
 559 368 l 1
 559 298 542 233 502 173 c 9
 624 0 l 1
EndSplineSet
EndChar

StartChar: at
Encoding: 64 64 94
Width: 998
Flags: W
HStem: -140 80<371.267 641.402> 80 70<404.718 511.819 661.093 765.567> 500 80<455.643 588.054> 720 80<407.807 676.451>
VStem: 41 90<177.559 426.493> 271 90<196.553 386.64> 871 87<280.648 527.329>
LayerCount: 2
Fore
SplineSet
522 500 m 0
 432 500 361 398 361 278 c 0
 361 208 400 150 460 150 c 0
 570 150 616 336 616 406 c 0
 616 466 582 500 522 500 c 0
672 560 m 25
 755 560 l 25
 665 250 l 18
 658.453125 227.44921875 653 210 653 200 c 0
 653 170 673 150 703 150 c 0
 793 150 871 270 871 390 c 0
 871 610 748 720 528 720 c 0
 308 720 131 520 131 300 c 0
 131 96.9111328125 290 -60 500 -60 c 0
 560 -60 620 -50 700 -20 c 9
 726 -90 l 17
 646 -120 576 -140 496 -140 c 0
 246 -140 41 60 41 300 c 0
 41 570 258 800 528 800 c 0
 798 800 958 660 958 390 c 0
 958 260 866 80 686 80 c 0
 626 80 586 110 576 160 c 1
 536 110 494 80 434 80 c 0
 344 80 271 168 271 278 c 0
 271 438 398 580 528 580 c 0
 588 580 630 540 650 480 c 9
 672 560 l 25
EndSplineSet
EndChar

StartChar: uni02BC
Encoding: 700 700 95
Width: 297
Flags: W
HStem: 650 150
VStem: 42 210
LayerCount: 2
Fore
SplineSet
252 800 m 25
 102 650 l 25
 42 650 l 25
 142 800 l 25
 252 800 l 25
EndSplineSet
EndChar

StartChar: uni2116
Encoding: 8470 8470 96
Width: 903
Flags: W
HStem: 0 60<607 857> 140 60<696.126 767.874> 480 60<696.126 767.874> 780 20G<57 156.394 457 537>
VStem: 57 80<0 660> 457 80<140 800> 607 60<231.579 448.421> 797 60<231.579 448.421>
LayerCount: 2
Fore
SplineSet
732 480 m 0
 692 480 667 420 667 340 c 0
 667 260 692 200 732 200 c 0
 772 200 797 260 797 340 c 0
 797 420 772 480 732 480 c 0
732 540 m 0
 812 540 857 460 857 340 c 0
 857 220 812 140 732 140 c 0
 652 140 607 220 607 340 c 0
 607 460 652 540 732 540 c 0
607 60 m 1
 857 60 l 1
 857 0 l 1
 607 0 l 1
 607 60 l 1
57 0 m 25
 57 800 l 25
 147 800 l 25
 457 140 l 25
 457 800 l 25
 537 800 l 25
 537 0 l 25
 447 0 l 25
 137 660 l 25
 137 0 l 25
 57 0 l 25
EndSplineSet
EndChar

StartChar: uni0404
Encoding: 1028 1028 97
Width: 777
Flags: W
HStem: 0 90<284.742 494.792> 360 80<134.844 454> 710 90<284.742 494.792>
VStem: 42 92.8438<254.822 360 440 545.178>
CounterMasks: 1 e0
LayerCount: 2
Fore
SplineSet
732 550 m 5
 642 530 l 5
 602 640 504 710 394 710 c 0
 244 710 144.84375 610 134.84375 440 c 1
 454 440 l 1
 454 360 l 1
 134.84375 360 l 1
 144.84375 190 244 90 394 90 c 0
 504 90 602 160 642 270 c 1
 732 250 l 1
 672 90 554 0 394 0 c 0
 184 0 42 160 42 400 c 0
 42 640 184 800 394 800 c 0
 554 800 672 710 732 550 c 5
EndSplineSet
EndChar

StartChar: uni0406
Encoding: 1030 1030 98
Width: 205
Flags: W
HStem: 0 21G<56 146> 780 20G<56 146>
VStem: 56 90<0 800>
LayerCount: 2
Fore
SplineSet
56 800 m 5
 146 800 l 5
 146 0 l 5
 56 0 l 5
 56 800 l 5
EndSplineSet
EndChar

StartChar: uni0407
Encoding: 1031 1031 99
Width: 318
Flags: W
HStem: 0 21G<114 204> 780 20G<114 204> 880 100<29 129 189 289>
VStem: 29 100<880 980> 114 90<0 800> 189 100<880 980>
LayerCount: 2
Fore
SplineSet
189 980 m 1xe4
 289 980 l 1
 289 880 l 1
 189 880 l 1
 189 980 l 1xe4
29 980 m 1xf0
 129 980 l 1
 129 880 l 1
 29 880 l 1
 29 980 l 1xf0
114 800 m 1xe8
 204 800 l 1
 204 0 l 1
 114 0 l 1
 114 800 l 1xe8
EndSplineSet
EndChar

StartChar: uni0410
Encoding: 1040 1040 100
Width: 710
Flags: W
HStem: 0 21G<34 140.25 567.75 674> 240 80<235 473> 780 20G<287.5 420.5>
LayerCount: 2
Fore
SplineSet
473 320 m 1
 354 700 l 1
 235 320 l 1
 473 320 l 1
499 240 m 1
 209 240 l 1
 134 0 l 1
 34 0 l 1
 294 800 l 1
 414 800 l 1
 674 0 l 1
 574 0 l 1
 499 240 l 1
EndSplineSet
EndChar

StartChar: uni0411
Encoding: 1041 1041 101
Width: 647
Flags: W
HStem: 0 90<146 447.26> 370 90<146 447.26> 710 90<146 534>
VStem: 56 90<90 370 460 710> 510 90<151.655 308.345>
LayerCount: 2
Fore
SplineSet
146 90 m 25
 352 90 l 18
 442 90 510 130 510 230 c 0
 510 330 442 370 352 370 c 10
 146 370 l 25
 146 90 l 25
362 460 m 18
 502 460 600 380 600 230 c 0
 600 80 502 -0 362 0 c 10
 56 0 l 25
 56 800 l 25
 534 800 l 25
 534 710 l 25
 146 710 l 25
 146 460 l 25
 362 460 l 18
EndSplineSet
EndChar

StartChar: uni0412
Encoding: 1042 1042 102
Width: 645
Flags: W
HStem: 0 90<146 447.26> 370 80<146 420.906> 710 90<146 419.979>
VStem: 56 90<90 370 450 710> 480 90<505.046 654.998> 510 90<149.201 309.99>
LayerCount: 2
Fore
SplineSet
146 450 m 25xf8
 327 450 l 18
 417 450 480 490 480 580 c 0
 480 670 417 710 327 710 c 10
 146 710 l 25
 146 450 l 25xf8
146 90 m 25
 352 90 l 18
 442 90 510 130 510 230 c 0xf4
 510 330 442 370 352 370 c 10
 146 370 l 25
 146 90 l 25
56 0 m 25
 56 800 l 25
 337 800 l 2
 487 800 570 715 570 605 c 0xf8
 570 525 537 440 467 410 c 1
 557 370 600 305 600 205 c 0
 600 75 502 -0 362 0 c 10
 56 0 l 25
EndSplineSet
EndChar

StartChar: uni0413
Encoding: 1043 1043 103
Width: 550
Flags: W
HStem: 0 21G<56 146> 710 90<146 510>
VStem: 56 90<0 710>
LayerCount: 2
Fore
SplineSet
56 0 m 29
 56 800 l 29
 510 800 l 29
 510 710 l 29
 146 710 l 29
 146 0 l 29
 56 0 l 29
EndSplineSet
EndChar

StartChar: uni0414
Encoding: 1044 1044 104
Width: 737
Flags: W
HStem: -140 230<41 113.51 624 692> 0 90<131 141 191 534> 710 90<281 534>
VStem: 41 90<-140 0> 191 90<203.281 710> 534 90<90 710> 604 88<-140 0>
LayerCount: 2
Fore
SplineSet
534 90 m 29x7c
 534 710 l 29
 281 710 l 29
 281 410 l 22
 281 260 261 140 191 90 c 13
 534 90 l 29x7c
191 800 m 29
 624 800 l 29
 624 90 l 29xbc
 694 90 l 29x7c
 692 -140 l 29
 604 -140 l 29xba
 604 0 l 29
 131 0 l 29x7a
 131 -140 l 29
 41 -140 l 29
 41 90 l 21xba
 141 90 191 170 191 410 c 14
 191 800 l 29
EndSplineSet
EndChar

StartChar: uni0415
Encoding: 1045 1045 105
Width: 630
Flags: W
HStem: 0 90<146 579> 355 90<146 549> 710 90<146 579>
VStem: 56 90<90 355 445 710>
CounterMasks: 1 e0
LayerCount: 2
Fore
SplineSet
56 0 m 29
 56 800 l 29
 579 800 l 29
 579 710 l 29
 146 710 l 29
 146 445 l 29
 549 445 l 29
 549 355 l 29
 146 355 l 29
 146 90 l 29
 579 90 l 29
 579 0 l 29
 56 0 l 29
EndSplineSet
EndChar

StartChar: uni0416
Encoding: 1046 1046 106
Width: 973
Flags: W
HStem: 0 21G<34 145.549 439 529 822.451 934> 355 90<339 439 529 629> 780 20G<34 145.549 439 529 822.451 934>
VStem: 439 90<0 355 445 800>
LayerCount: 2
Fore
SplineSet
34 800 m 25
 134 800 l 25
 339 445 l 25
 439 445 l 25
 439 800 l 25
 529 800 l 25
 529 445 l 25
 629 445 l 29
 834 800 l 29
 934 800 l 29
 709 400 l 29
 934 0 l 29
 834 0 l 29
 629 355 l 29
 529 355 l 25
 529 0 l 25
 439 0 l 25
 439 355 l 25
 339 355 l 25
 134 0 l 25
 34 0 l 25
 259 401 l 25
 34 800 l 25
EndSplineSet
EndChar

StartChar: uni0417
Encoding: 1047 1047 107
Width: 572
Flags: W
HStem: 0 90<200.676 367.595> 380 80<232 364.052> 710 90<217.111 364.145>
VStem: 38 90<170.669 211.556> 58 90<588.444 625.617> 416 90<510.828 659.01> 436 90<155.542 309.179>
LayerCount: 2
Fore
SplineSet
232 380 m 1xf2
 232 460 l 1
 282 460 l 2
 362 460 416 505 416 585 c 0
 416 665 362 710 282 710 c 0
 212 710 173 660 148 570 c 5
 58 590 l 21
 83 700 132 800 282 800 c 0
 417 800 506 715 506 585 c 0xec
 506 505 460 450 390 420 c 1
 480 390 526 325 526 235 c 0
 526 95 422 0 282 0 c 0
 102 0 63 120 38 210 c 1
 128 230 l 1
 153 140 192 90 282 90 c 0
 372 90 436 145 436 235 c 0
 436 314.826171875 372 380 282 380 c 2
 232 380 l 1xf2
EndSplineSet
EndChar

StartChar: uni0418
Encoding: 1048 1048 108
Width: 685
Flags: W
HStem: 0 21G<56 167.515 536 626> 780 20G<56 146 514.485 626>
VStem: 56 90<140 800> 536 90<0 660>
LayerCount: 2
Fore
SplineSet
626 0 m 25
 536 0 l 25
 536 660 l 25
 156 0 l 25
 56 0 l 25
 56 800 l 25
 146 800 l 25
 146 140 l 25
 526 800 l 25
 626 800 l 25
 626 0 l 25
EndSplineSet
EndChar

StartChar: uni0419
Encoding: 1049 1049 109
Width: 685
Flags: W
HStem: 0 21G<56 167.515 536 626> 780 20G<56 146 514.485 626> 870 70<272.422 403.982>
VStem: 56 90<140 800> 186 60<967.443 1010> 426 60<963.653 1010> 536 90<0 660>
LayerCount: 2
Fore
SplineSet
186 1010 m 9
 246 1010 l 17
 256 960 291 940 341 940 c 0
 391 940 416 960 426 1010 c 9
 486 1010 l 17
 476 910 431 870 341 870 c 0
 251 870 196 910 186 1010 c 9
626 0 m 25
 536 0 l 25
 536 660 l 25
 156 0 l 25
 56 0 l 25
 56 800 l 25
 146 800 l 25
 146 140 l 25
 526 800 l 25
 626 800 l 25
 626 0 l 25
EndSplineSet
EndChar

StartChar: uni041A
Encoding: 1050 1050 110
Width: 584
Flags: W
HStem: 0 21G<56 146 430.592 546> 355 90<146 206> 780 20G<56 146 430.592 544>
VStem: 56 90<0 355 445 800>
LayerCount: 2
Fore
SplineSet
146 0 m 25
 56 0 l 25
 56 800 l 25
 146 800 l 25
 146 445 l 25
 206 445 l 25
 444 800 l 25
 544 800 l 25
 286 400 l 25
 546 0 l 25
 444 0 l 25
 206 355 l 25
 146 355 l 25
 146 0 l 25
EndSplineSet
EndChar

StartChar: uni041B
Encoding: 1051 1051 111
Width: 708
Flags: W
HStem: 0 90<40 100.674> 710 90<250 559>
VStem: 160 90<167.611 710> 559 90<0 710>
LayerCount: 2
Fore
SplineSet
160 800 m 25
 649 800 l 25
 649 0 l 25
 559 0 l 25
 559 710 l 25
 250 710 l 25
 250 300 l 18
 250 80 150 -0 50 0 c 10
 40 0 l 25
 40 90 l 17
 120 90 160 170 160 300 c 10
 160 800 l 25
EndSplineSet
EndChar

StartChar: uni041C
Encoding: 1052 1052 112
Width: 801
Flags: W
HStem: 0 21G<56 146 343.029 454.971 652 742> 780 20G<56 192.086 605.914 742>
VStem: 56 90<0 680> 652 90<0 680>
LayerCount: 2
Fore
SplineSet
56 0 m 29
 56 800 l 29
 186 800 l 29
 399 100 l 29
 612 800 l 29
 742 800 l 29
 742 0 l 29
 652 0 l 29
 652 680 l 29
 449 0 l 29
 349 0 l 29
 146 680 l 29
 146 0 l 29
 56 0 l 29
EndSplineSet
EndChar

StartChar: uni041D
Encoding: 1053 1053 113
Width: 676
Flags: W
HStem: 0 21G<56 146 527 617> 360 80<146 527> 780 20G<56 146 527 617>
VStem: 56 90<0 360 440 800> 527 90<0 360 440 800>
LayerCount: 2
Fore
SplineSet
56 0 m 25
 56 800 l 25
 146 800 l 25
 146 440 l 25
 527 440 l 25
 527 800 l 25
 617 800 l 25
 617 0 l 25
 527 0 l 25
 527 360 l 25
 146 360 l 25
 146 0 l 25
 56 0 l 25
EndSplineSet
EndChar

StartChar: uni041E
Encoding: 1054 1054 114
Width: 794
Flags: W
HStem: 0 90<292.903 495.097> 710 90<292.903 490.745>
VStem: 42 90<268.419 531.581> 656 90<268.419 524.689>
LayerCount: 2
Fore
SplineSet
394 710 m 4
 239 710 132 580 132 400 c 4
 132 220 239 90 394 90 c 4
 549 90 656 220 656 400 c 4
 656 570 549 710 394 710 c 4
394 800 m 4
 604 800 746 630 746 400 c 4
 746 170 604 0 394 0 c 4
 184 0 42 170 42 400 c 4
 42 630 184 800 394 800 c 4
EndSplineSet
EndChar

StartChar: uni041F
Encoding: 1055 1055 115
Width: 676
Flags: W
HStem: 0 21G<56 146 527 617> 710 90<146 527>
VStem: 56 90<0 710> 527 90<0 710>
LayerCount: 2
Fore
SplineSet
56 0 m 25
 56 800 l 25
 617 800 l 25
 617 0 l 25
 527 0 l 25
 527 710 l 25
 146 710 l 25
 146 0 l 25
 56 0 l 25
EndSplineSet
EndChar

StartChar: uni0420
Encoding: 1056 1056 116
Width: 627
Flags: W
HStem: 0 21G<56 146> 350 80<146 412.716> 720 80<146 414.274>
VStem: 56 90<0 350 430 720> 492 90<503.483 646.517>
LayerCount: 2
Fore
SplineSet
146 430 m 29
 332 430 l 6
 422 430 492 495 492 575 c 4
 492 655 423 720 333 720 c 6
 146 720 l 29
 146 430 l 29
146 350 m 29
 146 0 l 29
 56 0 l 29
 56 800 l 29
 357 800 l 6
 502 800 582 710 582 575 c 4
 582 440 497 350 357 350 c 6
 146 350 l 29
EndSplineSet
EndChar

StartChar: uni0421
Encoding: 1057 1057 117
Width: 719
Flags: W
HStem: 0 90<269.418 473.57> 710 90<269.418 473.57>
VStem: 43 90<263.42 536.58> 582 90<203.906 270 530 596.094>
LayerCount: 2
Fore
SplineSet
672 530 m 5
 582 530 l 5
 562 620 522 710 357 710 c 4
 192 710 133 530 133 400 c 4
 133 270 192 90 357 90 c 4
 522 90 562 180 582 270 c 5
 672 270 l 5
 652 120 557 0 357 0 c 4
 157 0 43 180 43 400 c 4
 43 620 157 800 357 800 c 4
 557 800 652 680 672 530 c 5
EndSplineSet
EndChar

StartChar: uni0422
Encoding: 1058 1058 118
Width: 647
Flags: W
HStem: 0 21G<277 367> 710 90<36 277 367 608>
VStem: 277 90<0 710>
LayerCount: 2
Fore
SplineSet
36 800 m 25
 608 800 l 25
 608 710 l 25
 367 710 l 25
 367 0 l 25
 277 0 l 25
 277 710 l 25
 36 710 l 25
 36 800 l 25
EndSplineSet
EndChar

StartChar: uni0423
Encoding: 1059 1059 119
Width: 672
Flags: W
HStem: 0 80<150 258.409> 780 20G<30 147.843 522.549 640>
LayerCount: 2
Fore
SplineSet
30 800 m 25
 140 800 l 25
 340 290 l 25
 530 800 l 25
 640 800 l 25
 360 100 l 18
 333.103515625 32.7587890625 290 0 240 0 c 10
 150 0 l 25
 150 80 l 25
 210 80 l 18
 260 80 265 110 295 170 c 9
 30 800 l 25
EndSplineSet
EndChar

StartChar: uni0424
Encoding: 1060 1060 120
Width: 793
Flags: W
HStem: 0 21G<348 438> 90 90<264.452 348 438 521.548> 620 90<264.452 348 438 521.548> 780 20G<348 438>
VStem: 41 90<305.743 494.257> 348 90<0 91.2866 180 620 708.713 800> 655 90<305.743 494.257>
CounterMasks: 1 0e
LayerCount: 2
Fore
SplineSet
348 180 m 13
 348 620 l 21
 218 610 131 520 131 400 c 4
 131 280 218 190 348 180 c 13
438 620 m 13
 438 180 l 21
 568 190 655 280 655 400 c 4
 655 520 568 610 438 620 c 13
348 710 m 13
 348 800 l 29
 438 800 l 29
 438 710 l 21
 628 700 745 570 745 400 c 4
 745 230 628 100 438 90 c 13
 438 0 l 29
 348 0 l 29
 348 90 l 21
 158 100 41 230 41 400 c 4
 41 570 158 700 348 710 c 13
EndSplineSet
EndChar

StartChar: uni0425
Encoding: 1061 1061 121
Width: 699
Flags: W
HStem: 0 21G<34 156.364 538.697 661> 780 20G<34 156.364 538.697 661>
LayerCount: 2
Fore
SplineSet
34 800 m 29
 144 800 l 29
 348 470 l 29
 551 800 l 29
 661 800 l 29
 403 400 l 29
 661 0 l 29
 551 0 l 29
 348 330 l 29
 144 0 l 29
 34 0 l 29
 293 400 l 29
 34 800 l 29
EndSplineSet
EndChar

StartChar: uni0426
Encoding: 1062 1062 122
Width: 716
InSpiro: 1
Flags: W
HStem: 0 90<146 513> 780 20G<56 146 513 603>
VStem: 56 90<90 800> 513 90<90 800> 583 88<-140 0>
LayerCount: 2
Fore
SplineSet
603 800 m 25xf0
 603 90 l 25xf0
 673 90 l 25
 671 -140 l 25
 583 -140 l 25
 583 0 l 25xe8
 56 0 l 25
 56 800 l 1
 146 800 l 1
 146 90 l 1
 513 90 l 25
 513 800 l 25
 603 800 l 25xf0
  Spiro
    603 800 v
    603 90 v
    673 90 v
    671 -140 v
    583 -140 v
    583 0 v
    56 0 v
    56 800 v
    146 800 v
    146 90 v
    513 90 v
    513 800 v
    0 0 z
  EndSpiro
EndSplineSet
EndChar

StartChar: uni0427
Encoding: 1063 1063 123
Width: 659
Flags: W
HStem: 0 21G<510 600> 290 80<199.736 473.883> 780 20G<46 136 510 600>
VStem: 46 90<422.658 800> 510 90<0 320 394.639 800>
LayerCount: 2
Fore
SplineSet
510 400 m 9
 510 800 l 25
 600 800 l 25
 600 0 l 25
 510 0 l 25
 510 320 l 17
 430 300 358 290 278 290 c 0
 138 290 46 360 46 480 c 10
 46 800 l 25
 136 800 l 25
 136 480 l 18
 136 410 203 370 323 370 c 0
 383 370 430 380 510 400 c 9
EndSplineSet
EndChar

StartChar: uni0428
Encoding: 1064 1064 124
Width: 929
Flags: W
HStem: 0 90<146 418 508 780> 780 20G<56 146 418 508 780 870>
VStem: 56 90<90 800> 418 90<90 800> 780 90<90 800>
CounterMasks: 1 38
LayerCount: 2
Fore
SplineSet
56 800 m 29
 146 800 l 29
 146 90 l 29
 418 90 l 29
 418 800 l 29
 508 800 l 29
 508 90 l 29
 780 90 l 29
 780 800 l 29
 870 800 l 29
 870 0 l 29
 56 0 l 29
 56 800 l 29
EndSplineSet
EndChar

StartChar: uni0429
Encoding: 1065 1065 125
Width: 985
Flags: W
HStem: 0 90<146 418 508 780> 780 20G<56 146 418 508 780 870>
VStem: 56 90<90 800> 418 90<90 800> 780 90<90 800> 850 90<-140 0>
LayerCount: 2
Fore
SplineSet
56 800 m 25xf4
 146 800 l 25
 146 90 l 25
 418 90 l 25
 418 800 l 25
 508 800 l 25
 508 90 l 25
 780 90 l 25
 780 800 l 25
 870 800 l 17
 870 90 l 1xf8
 940 90 l 1
 940 -140 l 1
 850 -140 l 1
 850 0 l 13
 56 0 l 25
 56 800 l 25xf4
EndSplineSet
EndChar

StartChar: uni042C
Encoding: 1068 1068 126
Width: 629
Flags: W
HStem: 0 80<146 414.274> 370 80<146 412.716> 780 20G<56 146>
VStem: 56 90<80 370 450 800> 492 90<153.483 296.517>
LayerCount: 2
Fore
SplineSet
146 370 m 25
 146 80 l 25
 333 80 l 2
 423 80 492 145 492 225 c 0
 492 305 422 370 332 370 c 2
 146 370 l 25
146 450 m 25
 357 450 l 2
 497 450 582 360 582 225 c 0
 582 90 502 0 357 0 c 2
 56 0 l 25
 56 800 l 25
 146 800 l 25
 146 450 l 25
EndSplineSet
EndChar

StartChar: uni042E
Encoding: 1070 1070 127
Width: 1002
Flags: W
HStem: 0 90<529.871 712.969> 355 90<146 293.824> 710 90<529.871 712.969>
VStem: 56 90<0 355 445 800> 292 88<262.63 355 445 537.37> 864 90<264.981 532.839>
CounterMasks: 1 e0
LayerCount: 2
Fore
SplineSet
622 800 m 0
 822 800 954 630 954 400 c 0
 954 170 822 0 622 0 c 0
 435 0 308 148 292 355 c 1
 146 355 l 1
 146 0 l 1
 56 0 l 1
 56 800 l 1
 146 800 l 1
 146 445 l 1
 292 445 l 1
 308 652 435 800 622 800 c 0
622 710 m 0
 477 710 380 580 380 400 c 0
 380 220 477 90 622 90 c 0
 767 90 864 220 864 400 c 0
 864 570 767 710 622 710 c 0
EndSplineSet
EndChar

StartChar: uni042F
Encoding: 1071 1071 128
Width: 677
Flags: W
HStem: 0 21G<32 140.514 528 618> 350 80<281 528> 720 80<230.885 528>
VStem: 62 90<498.63 642.378> 528 90<0 350 430 720>
LayerCount: 2
Fore
SplineSet
528 430 m 25
 528 720 l 25
 311 720 l 2
 221 720 152 650 152 570 c 0
 152 490 222 430 312 430 c 2
 528 430 l 25
528 350 m 25
 281 350 l 17
 132 0 l 1
 32 0 l 1
 201 373 l 1
 121 413 62 484.784179688 62 570 c 0
 62 705 142 800 287 800 c 2
 618 800 l 25
 618 0 l 25
 528 0 l 25
 528 350 l 25
EndSplineSet
EndChar

StartChar: uni0430
Encoding: 1072 1072 129
Width: 578
Flags: W
HStem: 0 70<163.761 309.247 444.097 533.299> 495 80<184.71 356.278>
VStem: 41 80<110.91 218.068> 64 80<395 453.196> 391 80<138.236 290 350.158 463.842>
LayerCount: 2
Fore
SplineSet
391 190 m 6xe8
 391 290 l 5
 361 275 342 265 252 255 c 4
 162 245 121 219 121 164 c 4
 121 109 180.990234375 70 231 70 c 4
 281 70 321.939453125 89.939453125 355 123 c 4
 370 138 391 160 391 190 c 6xe8
64 395 m 21xd8
 64 534 168 575 268 575 c 4
 388 575 471 525 471 425 c 6
 471 110 l 6
 471 80 484 68 514 68 c 4
 519 68 524 68 534 70 c 5
 534 10 l 5
 514 3 494 0 474 0 c 4
 415 0 396 40 391 80 c 5
 331 25 279 0 213 0 c 4
 113 0 41 64 41 164 c 4xe8
 41 234 69 273 129 298 c 4
 159.9609375 310.900390625 177 315 297 330 c 4
 367.044921875 338.755859375 391 355 391 390 c 6
 391 415 l 6
 391 465 343 495 268 495 c 4
 188 495 144 455 144 395 c 5
 64 395 l 21xd8
EndSplineSet
EndChar

StartChar: uni0431
Encoding: 1073 1073 130
Width: 568
Flags: W
HStem: 0 80<206.067 359.933> 495 80<204.183 361.591> 665 80<198.013 450>
VStem: 46 80<171.376 406.554> 440 80<171.376 404.418>
LayerCount: 2
Fore
SplineSet
895 415 m 1053
283 495 m 0
 193 495 126 428 126 288 c 0
 126 148 193 80 283 80 c 0
 373 80 440 148 440 288 c 0
 440 428 373 495 283 495 c 0
283 575 m 0
 433 575 520 468 520 288 c 0
 520 108 433 0 283 0 c 0
 133 0 46 108 46 288 c 0
 46 468 54.5 554.171875 76 608 c 0
 111.834960938 697.71875 183 745 283 745 c 2
 450 745 l 1
 450 665 l 1
 283 665 l 2
 183 665 136 598 126 518 c 1
 165.333007812 555.090820312 218.295898438 575 283 575 c 0
EndSplineSet
EndChar

StartChar: uni0432
Encoding: 1074 1074 131
Width: 545
Flags: W
HStem: 0 80<134 380.428> 265 80<134 376.348> 495 80<134 375.521>
VStem: 54 80<80 265 345 495> 402 78<369.843 468.794> 420 80<115.975 229.024>
LayerCount: 2
Fore
SplineSet
134 345 m 29xf8
 324 345 l 6
 364 345 402 380 402 420 c 4
 402 460 364 495 324 495 c 6
 134 495 l 29
 134 345 l 29xf8
134 80 m 29
 324 80 l 22
 374 80 420 123 420 173 c 4xf4
 420 223 374 265 324 265 c 14
 134 265 l 29
 134 80 l 29
54 0 m 29
 54 575 l 29
 324 575 l 6
 414 575 480 510 480 420 c 4xf8
 480 370 454 335 414 305 c 5
 474 275 500 243 500 173 c 4
 500 73 434 -0 344 0 c 14
 54 0 l 29
EndSplineSet
EndChar

StartChar: uni0433
Encoding: 1075 1075 132
Width: 418
Flags: W
HStem: 0 21G<54 134> 495 80<134 371>
VStem: 54 80<0 495>
LayerCount: 2
Fore
SplineSet
54 575 m 29
 371 575 l 29
 371 495 l 29
 134 495 l 29
 134 0 l 29
 54 0 l 29
 54 575 l 29
EndSplineSet
EndChar

StartChar: uni0434
Encoding: 1076 1076 133
Width: 616
Flags: W
HStem: 0 80<161 441> 495 80<271 441>
VStem: 41 80<-100 0> 191 80<269.656 495> 441 80<80 495> 491 80<-100 0>
LayerCount: 2
Fore
SplineSet
441 80 m 29xf8
 441 495 l 29
 271 495 l 25
 271 455 l 18
 271 285 231 150 161 80 c 9
 441 80 l 29xf8
191 575 m 25
 521 575 l 29
 521 80 l 29xf8
 571 80 l 25
 571 -100 l 25
 491 -100 l 25
 491 0 l 25xf4
 121 0 l 25
 121 -100 l 25
 41 -100 l 25
 41 80 l 17
 161 140 191 295 191 495 c 10
 191 575 l 25
EndSplineSet
EndChar

StartChar: uni0435
Encoding: 1077 1077 134
Width: 565
Flags: W
HStem: 0 80<213.162 365.587> 263 70<134 427> 495 80<205.527 356.301>
VStem: 44 90<171.281 263 333 417.238> 427 90<138.889 183 333 410.333>
LayerCount: 2
Fore
SplineSet
134 333 m 9
 427 333 l 17
 427 423 371 495 281 495 c 0
 191 495 134 423 134 333 c 9
517 263 m 9
 134 263 l 17
 134 173 191 80 281 80 c 0
 351 80 407 113 427 183 c 9
 517 183 l 17
 497 73 401 0 281 0 c 0
 141 0 44 118 44 288 c 0
 44 458 141 575 281 575 c 0
 421 575 517 463 517 263 c 9
EndSplineSet
EndChar

StartChar: uni0436
Encoding: 1078 1078 135
Width: 777
Flags: W
HStem: 0 21G<37 149.097 347 427 624.903 737> 248 79<287 347 427 487> 555 20G<37 149.097 347 427 624.903 737>
VStem: 347 80<0 248 327 575>
LayerCount: 2
Fore
SplineSet
347 575 m 25
 427 575 l 25
 427 327 l 25
 487 327 l 25
 637 575 l 25
 737 575 l 25
 567 288 l 25
 737 0 l 25
 637 0 l 25
 487 248 l 25
 427 248 l 25
 427 0 l 25
 347 0 l 25
 347 248 l 25
 287 248 l 25
 137 0 l 25
 37 0 l 25
 207 288 l 25
 37 575 l 25
 137 575 l 25
 287 327 l 25
 347 327 l 25
 347 575 l 25
EndSplineSet
EndChar

StartChar: uni0437
Encoding: 1079 1079 136
Width: 453
Flags: W
HStem: 0 80<160.222 292.229> 265 80<191 291.889> 495 80<161.292 290.495>
VStem: 36 80<132.07 166.75> 46 80<423.25 453.415> 316 80<368.703 468.728> 326 80<111.925 233.433>
LayerCount: 2
Fore
SplineSet
36 165 m 9xf2
 116 185 l 17
 136 120 161 80 221 80 c 4
 281 80 326 113 326 173 c 4xf2
 326 233 281 265 221 265 c 14
 191 265 l 25
 191 345 l 25
 221 345 l 18
 261 345 316 360 316 420 c 0
 316 470 271 495 221 495 c 0
 171 495 146 470 126 405 c 1
 46 425 l 17
 66 515 121 575 221 575 c 0
 321.004882812 575 396 520 396 420 c 0xec
 396 360 371 335 321 305 c 1
 381 275 406 243 406 173 c 0
 406 63 331 0 221 0 c 0
 111 0 56 75 36 165 c 9xf2
EndSplineSet
EndChar

StartChar: uni0438
Encoding: 1080 1080 137
Width: 512
Flags: W
HStem: 0 21G<54 163.67 374 454> 555 20G<54 134 344.33 454>
VStem: 54 80<120 575> 374 80<0 455>
LayerCount: 2
Fore
SplineSet
54 0 m 25
 54 575 l 25
 134 575 l 25
 134 120 l 25
 354 575 l 25
 454 575 l 25
 454 0 l 25
 374 0 l 25
 374 455 l 25
 154 0 l 25
 54 0 l 25
EndSplineSet
EndChar

StartChar: uni0439
Encoding: 1081 1081 138
Width: 510
Flags: W
HStem: 0 21G<53 153.575 373 453> 555 20G<53 133 352.425 453> 645 70<184.422 315.982>
VStem: 53 80<140 575> 98 60<742.443 785> 338 60<738.653 785> 373 80<0 435>
LayerCount: 2
Fore
SplineSet
98 785 m 9xec
 158 785 l 17
 168 735 203 715 253 715 c 0
 303 715 328 735 338 785 c 9
 398 785 l 17
 388 685 343 645 253 645 c 0
 163 645 108 685 98 785 c 9xec
53 0 m 25xf2
 53 575 l 25
 133 575 l 25
 133 140 l 25
 363 575 l 25
 453 575 l 25
 453 0 l 25
 373 0 l 25
 373 435 l 25
 143 0 l 25
 53 0 l 25xf2
EndSplineSet
EndChar

StartChar: uni043A
Encoding: 1082 1082 139
Width: 524
Flags: W
HStem: 0 21G<54 134 371.903 484> 248 80<134 234> 555 20G<54 134 371.854 484>
VStem: 54 80<0 248 328 575>
LayerCount: 2
Fore
SplineSet
54 0 m 25
 54 575 l 25
 134 575 l 25
 134 328 l 25
 234 328 l 25
 384 575 l 25
 484 575 l 25
 294 288 l 25
 484 0 l 25
 384 0 l 25
 234 248 l 25
 134 248 l 25
 134 0 l 25
 54 0 l 25
EndSplineSet
EndChar

StartChar: uni043B
Encoding: 1083 1083 140
Width: 570
Flags: W
HStem: 0 80<40 87.916> 495 80<200 432>
VStem: 120 80<114.621 495> 432 80<0 495>
LayerCount: 2
Fore
SplineSet
120 575 m 25
 512 575 l 25
 512 0 l 25
 432 0 l 25
 432 495 l 25
 200 495 l 25
 200 230 l 18
 200 90.00390625 140 0 40 0 c 9
 40 80 l 17
 90 80 120 120 120 230 c 10
 120 575 l 25
EndSplineSet
EndChar

StartChar: uni043C
Encoding: 1084 1084 141
Width: 612
Flags: W
HStem: 0 21G<54 134 258.526 349.474 474 554> 555 20G<54 179.474 428.526 554>
VStem: 54 80<0 475> 474 80<0 475>
LayerCount: 2
Fore
SplineSet
54 0 m 25
 54 575 l 25
 174 575 l 25
 304 100 l 25
 434 575 l 25
 554 575 l 25
 554 0 l 25
 474 0 l 25
 474 475 l 25
 344 0 l 25
 264 0 l 25
 134 475 l 25
 134 0 l 25
 54 0 l 25
EndSplineSet
EndChar

StartChar: uni043D
Encoding: 1085 1085 142
Width: 512
Flags: W
HStem: 0 21G<54 134 374 454> 248 80<134 374> 555 20G<54 134 374 454>
VStem: 54 80<0 248 328 575> 374 80<0 248 328 575>
LayerCount: 2
Fore
SplineSet
54 0 m 25
 54 575 l 25
 134 575 l 25
 134 328 l 25
 374 328 l 25
 374 575 l 25
 454 575 l 25
 454 0 l 25
 374 0 l 25
 374 248 l 1
 134 248 l 25
 134 0 l 1
 54 0 l 25
EndSplineSet
EndChar

StartChar: uni043E
Encoding: 1086 1086 143
Width: 567
Flags: W
HStem: 0 80<204.067 357.933> 495 80<202.409 359.591>
VStem: 44 80<171.376 404.418> 438 80<171.376 404.418>
LayerCount: 2
Fore
SplineSet
281 495 m 4
 191 495 124 428 124 288 c 4
 124 148 191 80 281 80 c 4
 371 80 438 148 438 288 c 4
 438 428 371 495 281 495 c 4
281 575 m 4
 431 575 518 468 518 288 c 4
 518 108 431 0 281 0 c 4
 131 0 44 108 44 288 c 4
 44 468 131 575 281 575 c 4
EndSplineSet
EndChar

StartChar: uni043F
Encoding: 1087 1087 144
Width: 512
Flags: W
HStem: 0 21G<54 134 374 454> 495 80<134 374>
VStem: 54 80<0 495> 374 80<0 495>
LayerCount: 2
Fore
SplineSet
54 0 m 25
 54 575 l 25
 454 575 l 25
 454 0 l 25
 374 0 l 25
 374 495 l 25
 134 495 l 25
 134 0 l 25
 54 0 l 25
EndSplineSet
EndChar

StartChar: uni0440
Encoding: 1088 1088 145
Width: 572
Flags: W
HStem: -200 21G<55 135> 0 80<214.564 364.958> 495 80<221.537 358.301>
VStem: 55 80<-200 90 170.601 390.591 485 575> 444 80<169.94 389.977>
LayerCount: 2
Fore
SplineSet
290 80 m 4
 380 80 444 158 444 278 c 4
 444 398 380 495 290 495 c 4
 200 495 135 398 135 278 c 4
 135 158 200 80 290 80 c 4
55 -200 m 29
 55 575 l 29
 135 575 l 29
 135 485 l 21
 175 545 226 575 296 575 c 4
 436 575 524 448 524 278 c 4
 524 108 437 0 297 0 c 4
 227 0 175 30 135 90 c 13
 135 -200 l 29
 55 -200 l 29
EndSplineSet
EndChar

StartChar: uni0441
Encoding: 1089 1089 146
Width: 532
Flags: W
HStem: 0 80<195.957 348.062> 495 80<191.679 350.561>
VStem: 44 80<164.917 410.838> 404 80<131.864 204 372 444.029>
LayerCount: 2
Fore
SplineSet
484 372 m 9
 404 372 l 17
 404 462 334 495 264 495 c 0
 174 495 124 418 124 288 c 0
 124 158 174 80 264 80 c 0
 334 80 404 114 404 204 c 9
 484 204 l 17
 484 74 389 0 264 0 c 0
 124 0 44 118 44 288 c 0
 44 458 124 575 264 575 c 0
 389 575 484 502 484 372 c 9
EndSplineSet
EndChar

StartChar: uni0442
Encoding: 1090 1090 147
Width: 477
Flags: W
HStem: 0 21G<195 275> 495 80<40 195 275 430>
VStem: 195 80<0 495>
LayerCount: 2
Fore
SplineSet
40 495 m 25
 40 575 l 25
 430 575 l 25
 430 495 l 25
 275 495 l 25
 275 0 l 25
 195 0 l 25
 195 495 l 25
 40 495 l 25
EndSplineSet
EndChar

StartChar: uni0443
Encoding: 1091 1091 148
Width: 531
Flags: W
HStem: -200 80<74.8185 173.393> 555 20G<35 130.89 396.67 493>
LayerCount: 2
Fore
SplineSet
304 0 m 1053
  Spiro
    304 0 {
    0 0 z
  EndSpiro
214 0 m 5
 35 575 l 29
 125 575 l 29
 259 120 l 29
 403 575 l 29
 493 575 l 29
 269 -105 l 22
 244.576171875 -179.142578125 189 -200 129 -200 c 4
 109 -200 89 -195 74 -185 c 13
 74 -115 l 21
 94 -120 104 -120 119 -120 c 4
 154 -120 172.78125 -109.91796875 184 -80 c 14
 214 0 l 5
EndSplineSet
EndChar

StartChar: uni0444
Encoding: 1092 1092 149
Width: 774
Flags: W
HStem: 0 80<254.116 345 425 515.884> 495 80<254.116 345 425 515.884>
VStem: 43 80<198.223 377.634> 345 80<-140 1.22351 80 495 573.779 715> 647 80<198.223 377.634>
CounterMasks: 1 38
LayerCount: 2
Fore
SplineSet
345 80 m 9
 345 495 l 17
 215 485 123 408 123 288 c 0
 123 168 215 90 345 80 c 9
425 495 m 9
 425 80 l 17
 555 90 647 168 647 288 c 0
 647 408 555 485 425 495 c 9
345 575 m 9
 345 715 l 25
 425 715 l 25
 425 575 l 17
 615 565 727 458 727 288 c 0
 727 118 615 10 425 0 c 9
 425 -140 l 25
 345 -140 l 25
 345 0 l 17
 155 10 43 118 43 288 c 0
 43 458 155 565 345 575 c 9
EndSplineSet
EndChar

StartChar: uni0445
Encoding: 1093 1093 150
Width: 533
Flags: W
HStem: 0 21G<37 148.636 381.364 493> 555 20G<37 148.636 381.364 493>
LayerCount: 2
Fore
SplineSet
37 575 m 5
 137 575 l 5
 265 355 l 5
 393 575 l 5
 493 575 l 5
 310 288 l 5
 493 0 l 29
 393 0 l 29
 265 220 l 29
 137 0 l 29
 37 0 l 29
 220 288 l 29
 37 575 l 5
EndSplineSet
EndChar

StartChar: uni0446
Encoding: 1094 1094 151
Width: 529
Flags: W
HStem: 0 80<134 354> 555 20G<54 134 354 434>
VStem: 54 80<80 575> 354 80<80 575> 404 80<-140 0>
LayerCount: 2
Fore
SplineSet
54 575 m 25xe8
 134 575 l 25
 134 80 l 25
 354 80 l 25
 354 575 l 25
 434 575 l 25
 434 80 l 25xf0
 484 80 l 25
 484 -140 l 25
 404 -140 l 25
 404 0 l 25
 54 0 l 25
 54 575 l 25xe8
EndSplineSet
EndChar

StartChar: uni0447
Encoding: 1095 1095 152
Width: 495
Flags: W
HStem: 0 21G<357 437> 195 80<158.774 334.131> 555 20G<47 127.095 357 437>
VStem: 47 81<306.397 575> 357 80<0 225 288.126 575>
LayerCount: 2
Fore
SplineSet
47 575 m 25
 127 575 l 25
 128 365 l 2
 128 295 182 275 242 275 c 0
 282 275 317 280 357 295 c 1
 357 575 l 25
 437 575 l 25
 437 0 l 25
 357 0 l 25
 357 225 l 1
 307 205 253 195 203 195 c 0
 123 195 47 243 47 335 c 2
 47 575 l 25
EndSplineSet
EndChar

StartChar: uni0448
Encoding: 1096 1096 153
Width: 712
Flags: W
HStem: 0 80<134 314 394 574> 555 20G<54 134 314 394 574 654>
VStem: 54 80<80 575> 314 80<80 575> 574 80<80 575>
CounterMasks: 1 38
LayerCount: 2
Fore
SplineSet
54 575 m 29
 134 575 l 29
 134 80 l 29
 314 80 l 29
 314 575 l 29
 394 575 l 29
 394 80 l 29
 574 80 l 29
 574 575 l 29
 654 575 l 29
 654 0 l 29
 54 0 l 29
 54 575 l 29
EndSplineSet
EndChar

StartChar: uni0449
Encoding: 1097 1097 154
Width: 749
Flags: W
HStem: 0 80<134 314 394 574> 555 20G<54 134 314 394 574 654>
VStem: 54 80<80 575> 314 80<80 575> 574 80<80 575> 624 80<-140 0>
LayerCount: 2
Fore
SplineSet
54 575 m 25xf4
 134 575 l 25
 134 80 l 25
 314 80 l 25
 314 575 l 25
 394 575 l 25
 394 80 l 25
 574 80 l 25
 574 575 l 25
 654 575 l 17
 654 80 l 1xf8
 704 80 l 1
 704 -140 l 1
 624 -140 l 1
 624 0 l 9
 54 0 l 25
 54 575 l 25xf4
EndSplineSet
EndChar

StartChar: uni044C
Encoding: 1100 1100 155
Width: 526
Flags: W
HStem: 0 80<134 368.151> 265 80<134 367.659> 555 20G<54 134>
VStem: 54 80<80 265 345 575> 400 80<111.43 234.684>
LayerCount: 2
Fore
SplineSet
134 80 m 25
 314 80 l 18
 364 80 400 123 400 173 c 0
 400 223 364 265 314 265 c 10
 134 265 l 25
 134 80 l 25
324 345 m 2
 326.322265625 345 480 341.76953125 480 173 c 0
 480 83 434 -0 344 0 c 10
 54 0 l 25
 54 575 l 25
 134 575 l 25
 134 345 l 25
 324 345 l 2
EndSplineSet
EndChar

StartChar: uni044E
Encoding: 1102 1102 156
Width: 777
Flags: W
HStem: 0 80<413.977 567.933> 248 80<134 258.16> 495 80<412.318 569.591>
VStem: 54 80<0 248 328 575> 256 78<173.377 248 328 402.545> 648 80<171.376 404.418>
LayerCount: 2
Fore
SplineSet
491 575 m 0
 641 575 728 468 728 288 c 0
 728 108 641 0 491 0 c 0
 352 0 268 92 256 248 c 1
 134 248 l 1
 134 0 l 1
 54 0 l 1
 54 575 l 1
 134 575 l 1
 134 328 l 1
 256 328 l 1
 268 484 352 575 491 575 c 0
491 495 m 0
 401 495 334 428 334 288 c 0
 334 148 401 80 491 80 c 0
 581 80 648 148 648 288 c 0
 648 428 581 495 491 495 c 0
EndSplineSet
EndChar

StartChar: uni044F
Encoding: 1103 1103 157
Width: 547
Flags: W
HStem: 0 21G<43 131.348 409 489> 230 80<219 409> 495 80<162.572 409>
VStem: 43 80<346.248 459.025> 409 80<0 230 310 495>
LayerCount: 2
Fore
SplineSet
409 495 m 25
 219 495 l 18
 169 495 123 452 123 402 c 0
 123 352 169 310 219 310 c 10
 409 310 l 25
 409 495 l 25
43 0 m 1
 149 240 l 1
 109 250 43 302 43 402 c 0
 43 502 109 575 199 575 c 10
 489 575 l 25
 489 0 l 25
 409 0 l 25
 409 230 l 25
 219 230 l 1
 123 0 l 9
 43 0 l 1
EndSplineSet
EndChar

StartChar: uni0456
Encoding: 1110 1110 158
Width: 199
Flags: W
HStem: 0 21G<56 140> 555 20G<56 140> 665 100<56 140>
VStem: 56 84<0 575 665 765>
LayerCount: 2
Fore
SplineSet
56 575 m 25
 140 575 l 25
 140 0 l 25
 56 0 l 25
 56 575 l 25
56 765 m 25
 140 765 l 25
 140 665 l 25
 56 665 l 25
 56 765 l 25
EndSplineSet
EndChar

StartChar: uni0457
Encoding: 1111 1111 159
Width: 300
Flags: W
HStem: 0 21G<106 190> 555 20G<106 190> 665 100<34 118 178 262>
VStem: 34 84<665 765> 106 84<0 575> 178 84<665 765>
LayerCount: 2
Fore
SplineSet
178 765 m 25xe4
 262 765 l 25
 262 665 l 25
 178 665 l 25
 178 765 l 25xe4
106 575 m 25xe8
 190 575 l 25
 190 0 l 25
 106 0 l 25
 106 575 l 25xe8
34 765 m 25xf0
 118 765 l 25
 118 665 l 25
 34 665 l 25
 34 765 l 25xf0
EndSplineSet
EndChar

StartChar: uni0454
Encoding: 1108 1108 160
Width: 529
Flags: W
HStem: 0 80<191.893 342.939> 248 80<124 304> 495 80<191.893 342.939>
VStem: 44 80<158.504 248 328 417.244> 404 80<146.656 185.75 390.25 429.188>
LayerCount: 2
Fore
SplineSet
484 392 m 1
 404 372 l 1
 384 462 334 495 264 495 c 0
 184 495 132 434 124 328 c 1
 304 328 l 1
 304 248 l 1
 124 248 l 1
 132 142 184 80 264 80 c 0
 334 80 384 114 404 204 c 1
 484 184 l 1
 454 54 389 0 264 0 c 0
 124 0 44 118 44 288 c 0
 44 458 124 575 264 575 c 0
 389 575 454 522 484 392 c 1
EndSplineSet
EndChar

StartChar: uni0490
Encoding: 1168 1168 161
Width: 551
Flags: W
HStem: 0 21G<56 146> 710 90<146 420>
VStem: 56 90<0 710> 420 90<800 940>
LayerCount: 2
Fore
SplineSet
56 0 m 25
 56 800 l 17
 420 800 l 5
 420 940 l 5
 510 940 l 1
 510 800 l 9
 510 710 l 25
 146 710 l 25
 146 0 l 25
 56 0 l 25
EndSplineSet
EndChar

StartChar: uni0491
Encoding: 1169 1169 162
Width: 420
Flags: W
HStem: 0 21G<54 134> 495 80<134 291>
VStem: 54 80<0 495> 291 80<575 695>
LayerCount: 2
Fore
SplineSet
54 575 m 17
 291 575 l 1
 291 695 l 1
 371 695 l 1
 371 575 l 9
 371 495 l 25
 134 495 l 25
 134 0 l 25
 54 0 l 25
 54 575 l 17
EndSplineSet
EndChar
